<?xml version="1.0" encoding="utf-8"?>
<!-- Generator: Adobe Illustrator 21.0.2, SVG Export Plug-In . SVG Version: 6.00 Build 0)  -->
<svg version="1.1" id="fixedillustration01" xmlns="http://www.w3.org/2000/svg" xmlns:xlink="http://www.w3.org/1999/xlink"
	 x="0px" y="0px" viewBox="0 0 220 220" enable-background="new 0 0 220 220" xml:space="preserve">
<symbol  id="Nieuw_symbool" viewBox="-76.643 -71.584 153.287 143.169">
	<g>
		<path d="M-16.318-10.194h-37.428l-8.596-28.983h-14.302l35.678,110.762h11.943L6.732-39.177H-7.569L-16.318-10.194z M-50.094,1.75
			h30.201l-15.139,50.36L-50.094,1.75z"/>
		<path d="M17.23,5.706c0,12.83,2.332,22.529,6.999,29.098c4.665,6.567,11.486,9.851,20.464,9.851
			c8.367,0,14.731-3.575,19.094-10.726l0.685,9.205h12.172v-83.071c0-10.193-2.612-18.017-7.836-23.469
			c-5.224-5.451-12.502-8.178-21.833-8.178c-4.058,0-8.608,1.002-13.654,3.005c-5.047,2.004-8.838,4.477-11.373,7.417l5.478,9.281
			c5.578-5.478,11.739-8.216,18.485-8.216c11.208,0,16.964,6.112,17.269,18.333v10.727c-4.362-6.441-10.55-9.661-18.562-9.661
			c-8.521,0-15.165,3.207-19.932,9.623c-4.768,6.415-7.253,15.633-7.455,27.652V5.706z M30.695-1.935
			c0-9.219,1.356-15.994,4.07-20.324c2.712-4.331,7.162-6.496,13.351-6.496c6.694,0,11.715,3.419,15.062,10.257v41.105
			c-3.5,6.736-8.471,10.104-14.91,10.104c-6.188,0-10.65-2.166-13.389-6.496c-2.739-4.331-4.135-10.979-4.185-19.944V-1.935z"/>
	</g>
</symbol>
<use xlink:href="#Nieuw_symbool"  width="153.287" height="143.169" id="fixedillustration01_1_" x="-76.643" y="-71.584" transform="matrix(1 0 0 -1 106.1526 116.1021)" overflow="visible"/>
</svg>
