<?xml version="1.0" encoding="utf-8"?>
<!-- Generator: Adobe Illustrator 21.0.2, SVG Export Plug-In . SVG Version: 6.00 Build 0)  -->
<svg version="1.1" id="fixedillustration01" xmlns="http://www.w3.org/2000/svg" xmlns:xlink="http://www.w3.org/1999/xlink"
	 x="0px" y="0px" viewBox="0 0 220 220" enable-background="new 0 0 220 220" xml:space="preserve">
<symbol  id="Nieuw_symbool" viewBox="-89.147 -64.594 178.293 129.188">
	<g>
		<path d="M-51.675,64.594c3.121,0,5.867-0.227,8.235-0.68c2.366-0.453,4.481-1.234,6.346-2.342c1.863-1.109,3.551-2.72,5.062-4.835
			c1.511-2.115,2.97-4.835,4.382-8.159l25.384-62.554c0.503-1.311,1.058-2.645,1.662-4.005C0-19.34,0.703-20.574,1.511-21.682
			c0.805-1.11,1.762-2.04,2.871-2.796c1.107-0.755,2.467-1.133,4.079-1.133c1.107,0,1.988-0.102,2.645-0.303
			c0.654-0.202,1.031-1.159,1.133-2.87c0-0.808-0.227-1.563-0.68-2.267c-0.453-0.704-1.133-1.058-2.04-1.058
			c-3.225,0.203-6.044,0.328-8.461,0.378c-2.418,0.052-5.137,0.075-8.159,0.075c-6.044,0-12.291-0.151-18.736-0.453
			c-1.008,0-1.714,0.354-2.115,1.058c-0.404,0.703-0.604,1.459-0.604,2.267c0.099,1.711,0.477,2.668,1.133,2.87
			c0.654,0.201,1.535,0.303,2.645,0.303c2.417,0,4.28,0.227,5.59,0.68c1.308,0.453,2.139,1.134,2.493,2.04
			c0.352,0.906,0.401,2.089,0.151,3.551c-0.252,1.459-0.781,3.248-1.586,5.364l-5.137,12.541H-60.59
			c-2.417-6.146-4.03-10.327-4.835-12.541c-0.808-2.621-1.36-4.685-1.662-6.195s-0.151-2.67,0.453-3.476
			c0.604-0.807,1.738-1.336,3.4-1.586c1.662-0.253,3.952-0.378,6.875-0.378c1.107,0,1.988-0.102,2.645-0.303
			c0.654-0.202,1.032-1.159,1.133-2.87c0-0.808-0.227-1.563-0.68-2.267c-0.453-0.704-1.133-1.058-2.04-1.058
			c-3.225,0.203-6.02,0.328-8.386,0.378c-2.368,0.052-5.062,0.075-8.083,0.075c-1.511,0-2.821,0-3.929,0
			c-1.109,0-2.191-0.023-3.249-0.075c-1.058-0.05-2.167-0.1-3.324-0.151c-1.159-0.05-2.545-0.125-4.155-0.227
			c-1.006,0-1.712,0.354-2.116,1.058c-0.401,0.703-0.604,1.459-0.604,2.267c0.102,1.711,0.479,2.668,1.133,2.87
			c0.657,0.201,1.535,0.303,2.645,0.303c2.014,0,3.65,0.326,4.911,0.982c1.258,0.653,2.316,1.534,3.173,2.644
			c0.854,1.107,1.586,2.366,2.191,3.777c0.604,1.41,1.209,2.819,1.813,4.231l26.442,62.554c0.704,1.813,0.957,3.272,0.756,4.382
			c-0.203,1.107-0.68,2.014-1.436,2.72c-0.755,0.704-1.714,1.232-2.871,1.586c-1.159,0.352-2.342,0.628-3.55,0.831
			c-1.511,0.302-2.52,0.578-3.022,0.831c-0.505,0.25-0.756,1.133-0.756,2.644c0,1.711,0.579,2.644,1.738,2.795
			C-54.824,64.518-53.389,64.594-51.675,64.594z M-57.719,5.062h31.73l-15.261,38.832h-0.453L-57.719,5.062z"/>
		<path d="M71.922,30.9v-0.302c1.712-1.714,3.173-3.98,4.382-6.799c1.209-2.821,1.813-5.492,1.813-8.008
			c0-3.626-0.808-6.901-2.418-9.821c-1.612-2.923-3.754-5.39-6.422-7.403c-2.67-2.017-5.691-3.551-9.065-4.608
			C56.836-7.102,53.436-7.63,50.013-7.63h-6.648c-5.238,0-9.042-0.505-11.407-1.511c-2.368-1.009-3.551-2.671-3.551-4.986
			c0-1.813,0.628-3.199,1.889-4.155c1.258-0.959,3.551-1.537,6.875-1.737l20.7-0.604c10.676,0,18.332-1.639,22.967-4.911
			c4.632-3.274,6.95-7.88,6.95-13.825c0-4.027-0.959-7.604-2.871-10.728c-1.915-3.121-4.66-5.766-8.234-7.933
			c-3.577-2.165-7.834-3.801-12.768-4.911c-4.938-1.106-10.426-1.662-16.47-1.662c-4.835,0-9.243,0.303-13.221,0.907
			c-3.98,0.604-7.354,1.612-10.124,3.021c-2.771,1.412-4.91,3.274-6.422,5.591c-1.511,2.318-2.266,5.189-2.266,8.612
			c0,3.324,1.058,6.271,3.173,8.839c2.115,2.569,4.934,3.854,8.461,3.854c1.209,0,2.29-0.175,3.249-0.529
			c0.956-0.352,1.787-0.778,2.493-1.284c0.703-0.503,1.258-1.006,1.662-1.511c0.401-0.503,0.604-0.906,0.604-1.209
			c0-0.2-0.227-0.503-0.68-0.906c-0.453-0.401-0.981-0.956-1.586-1.662c-0.604-0.704-1.134-1.587-1.587-2.645
			s-0.68-2.342-0.68-3.853c0-4.733,1.737-7.857,5.213-9.368c3.475-1.511,8.889-2.267,16.242-2.267c6.85,0,12.289,1.284,16.319,3.854
			c4.027,2.568,6.043,6.572,6.043,12.012c0,2.418-0.68,4.358-2.039,5.817c-1.36,1.461-3.149,2.568-5.364,3.324
			c-2.217,0.755-4.785,1.261-7.706,1.511c-2.923,0.253-5.944,0.403-9.065,0.453c-3.124,0.052-6.247,0.128-9.368,0.227
			c-3.123,0.102-5.994,0.401-8.612,0.907c-3.527,0.604-6.474,1.761-8.84,3.475c-2.367,1.712-3.551,4.632-3.551,8.764
			c0,3.726,1.309,6.975,3.929,9.746c2.618,2.77,6.648,4.155,12.088,4.155c-3.225,1.208-5.869,2.592-7.933,4.155
			c-2.065,1.561-3.702,3.223-4.91,4.985c-1.209,1.762-2.066,3.601-2.569,5.516c-0.505,1.912-0.755,3.827-0.755,5.742
			c0,3.222,0.703,6.244,2.115,9.065c1.409,2.819,3.399,5.263,5.968,7.328c2.569,2.063,5.641,3.702,9.218,4.911
			c3.574,1.209,7.528,1.813,11.86,1.813c2.819,0,5.766-0.227,8.84-0.68c3.071-0.453,5.715-1.235,7.933-2.342l20.7,3.928
			c1.106,0.099,1.862-0.252,2.266-1.058c0.401-0.807,0.604-1.662,0.604-2.568c0-1.412-0.203-2.72-0.604-3.929
			c-0.403-1.208-0.958-1.813-1.662-1.813L71.922,30.9z M48.654,33.921c-4.533,0-8.261-1.556-11.182-4.665
			c-2.923-3.111-4.382-7.524-4.382-13.242c0-6.221,1.485-10.988,4.457-14.297c2.971-3.31,6.725-4.965,11.257-4.965
			c4.632,0,8.41,1.629,11.332,4.89c2.921,3.26,4.382,7.951,4.382,14.07c0,5.718-1.487,10.183-4.457,13.394
			C57.088,32.316,53.285,33.921,48.654,33.921z"/>
	</g>
</symbol>
<use xlink:href="#Nieuw_symbool"  width="178.293" height="129.188" id="fixedillustration01_1_" x="-89.147" y="-64.594" transform="matrix(1 0 0 -1 109.6453 121.7322)" overflow="visible"/>
</svg>
