<?xml version="1.0" encoding="utf-8"?>
<!-- Generator: Adobe Illustrator 21.0.2, SVG Export Plug-In . SVG Version: 6.00 Build 0)  -->
<svg version="1.1" id="fixedillustration01" xmlns="http://www.w3.org/2000/svg" xmlns:xlink="http://www.w3.org/1999/xlink"
	 x="0px" y="0px" viewBox="0 0 220 220" enable-background="new 0 0 220 220" xml:space="preserve">
<symbol  id="Nieuw_symbool" viewBox="-67.369 -70.356 134.737 140.713">
	<g>
		<path d="M-62.099,6.239l1.017,7.456c0,1.467,0.225,2.936,0.678,4.406c0,1.92,0.958,4.8,2.88,8.643
			c0,0.225,0.509,1.694,1.525,4.406c0,0.225,1.072,3.559,3.22,9.999l2.034,4.914c0,0.45,0.281,1.327,0.847,2.626
			c0.564,1.298,0.988,2.598,1.271,3.898c0.281,1.297,0.648,2.568,1.102,3.812c1.581,3.05,2.992,5.648,4.236,7.795
			c2.373,4.517,6.778,6.551,13.218,6.101l5.423-0.508c3.389-0.906,5.987-1.864,7.795-2.881c2.597-1.017,4.348-2.118,5.253-3.305
			c0.903-1.186,1.298-3.135,1.187-5.846c0.111-1.356,0.45-7.231,1.017-17.624c0.564-10.395,0.847-15.648,0.847-15.76l0.848-7.287
			c0-0.678,1.242-8.812,3.728-24.402l3.728-11.862c2.258-6.328,3.475-9.633,3.643-9.913c0.17-0.283,0.65-1.499,1.441-3.644
			c1.242-3.729,0.17-6.212-3.221-7.456c-3.049-0.45-5.311-0.17-6.778,0.847c-0.566,0-1.864,0.509-3.897,1.525
			c-0.228,0.566-0.876,1.102-1.949,1.609c-1.075,0.509-1.779,0.933-2.118,1.271c-1.245,0.339-2.373,2.089-3.389,5.253
			c-0.339,0.226-0.961,1.128-1.864,2.712c-0.792,1.58-1.017,2.881-0.678,3.897c-0.792,1.017-1.186,3.105-1.186,6.27
			c-1.017,1.695-1.525,4.348-1.525,7.965c0,3.614-0.566,6.439-1.694,8.474c-5.762-2.601-11.921-4.012-18.471-4.237
			c-1.245,0-1.864-0.228-1.864-0.678c0-1.017-0.339-2.825-1.017-5.423l-2.881-18.641c1.128-8.358,0.111-12.765-3.05-13.218
			c-0.906,0-2.402-0.225-4.491-0.678c-2.092-0.45-3.813-0.056-5.168,1.187c-2.601,1.47-4.436,2.966-5.508,4.49
			c-1.075,1.525-1.554,3.246-1.44,5.169c0.111,1.581,0.395,4.97,0.848,10.168c0.225,0.225,0.31,1.495,0.254,3.812
			c-0.058,2.314,0.085,4.094,0.424,5.338l2.711,10.507c0.339,0.225,0.789,1.919,1.355,5.084c-0.114,0.225-0.169,0.788-0.169,1.694
			L-62.099,6.239z M-39.222,11.153c0.225,0.225,1.552,0.479,3.982,0.763c2.428,0.28,5.28,1.271,8.558,2.965
			c0.111,0,0.056,1.355-0.169,4.067c-0.339,4.745-0.622,8.134-0.847,10.168c-0.228,2.711-0.453,4.631-0.678,5.761
			c0,2.145-0.847,6.609-2.542,13.388l-7.456-25.25c-1.583-7.006-2.203-11.298-1.864-12.879L-39.222,11.153z"/>
		<path d="M66.521,3.02c0.45-5.65,0.678-10.057,0.678-13.218l0.17-2.203L67.03-22.738c0-1.583-0.059-3.051-0.17-4.406v-2.711
			l-0.678-4.406v-1.694c0-4.179-1.922-10.109-5.762-17.794c-1.355-2.822-3.447-5.703-6.27-8.642
			c-4.745-5.084-10.565-7.737-17.455-7.965c-5.762,0-9.998,1.186-12.709,3.559l-1.695,0.847c-1.355,0.679-2.881,2.825-4.575,6.439
			c0,0.34-0.283,1.075-0.848,2.203c0,1.584,0.34,2.825,1.018,3.729c0.45,0.905,1.975,1.694,4.575,2.372
			c1.128,0.228,3.22-0.902,6.27-3.389c2.259-2.483,4.915-3.784,7.965-3.897c3.162-0.45,5.593,1.017,7.287,4.405
			c1.694,3.39,2.992,7.909,3.897,13.558c0.45,2.146,0.678,4.575,0.678,7.286c0,2.712-0.113,4.518-0.339,5.423
			c-3.05-1.583-5.762-2.261-8.134-2.033H38.56c-0.905-0.228-2.262-0.199-4.067,0.085c-1.809,0.28-3.503,0.987-5.083,2.118
			l-3.221,2.202c0.111-0.113,0.056-0.169-0.169-0.169l-0.848,0.509L22.8-23.247c-1.017,0.564-1.525,1.637-1.525,3.22
			c-0.792,0.45-1.355,1.018-1.694,1.695c-0.905,0.339-1.355,1.128-1.355,2.372l-0.848,3.39c0,0.563-0.283,1.975-0.848,4.236
			c-0.566,0.902-0.707,1.806-0.423,2.711c0.28,0.903,0.423,1.637,0.423,2.203l0.509,5.762v1.187c-0.339,0.339-0.339,1.411,0,3.219
			c0.339,0.679,0.509,1.187,0.509,1.525c0.678,3.614,1.186,5.902,1.524,6.863c0.339,0.958,0.594,2.06,0.763,3.304
			c0.17,1.242,0.594,2.373,1.271,3.389l1.694,3.898c0.678,1.242,2.483,2.992,5.423,5.253c1.128,1.128,2.542,1.864,4.236,2.203
			l4.745-0.339l4.914-1.187c0.111,0,2.203-0.847,6.271-2.542c0,2.145,1.072,3.953,3.22,5.422c0.902,0.903,2.881,0.958,5.931,0.169
			h1.525c1.241,0.111,2.598-0.397,4.066-1.525c0.679-0.792,1.412-2.6,2.203-5.423C66.123,17.254,66.521,9.006,66.521,3.02z
			 M35.001-1.556l0.339-6.609l1.187-3.22l1.694-3.389c0.339-2.373,1.467-3.787,3.389-4.236c1.356-0.229,2.653,0.508,3.898,2.202
			c0.678,0.564,1.186,0.959,1.524,1.187c0.678,0.564,1.018,1.835,1.018,3.812c0,1.976,0.169,3.586,0.508,4.83
			c-0.113,0.563-0.029,2.568,0.254,6.016c0.281,3.445,0.564,6.101,0.848,7.965c0.28,1.864,0.365,3.134,0.254,3.812
			c-0.791,1.017-1.524,3.106-2.203,6.27c-2.261,2.258-3.786,3.5-4.575,3.728c-2.486,0.903-4.011,1.017-4.575,0.339
			c-0.792-0.792-1.639-4.52-2.542-11.185c-0.678-1.13-0.99-2.57-0.932-4.32c0.056-1.753,0.026-3.08-0.085-3.982V-1.556z"/>
	</g>
</symbol>
<use xlink:href="#Nieuw_symbool"  width="134.737" height="140.713" id="fixedillustration01_1_" x="-67.369" y="-70.356" transform="matrix(1 0 0 -1 108.1949 121.0519)" overflow="visible"/>
</svg>
