<?xml version="1.0" encoding="utf-8"?>
<!-- Generator: Adobe Illustrator 21.0.2, SVG Export Plug-In . SVG Version: 6.00 Build 0)  -->
<svg version="1.1" id="fixedillustration01" xmlns="http://www.w3.org/2000/svg" xmlns:xlink="http://www.w3.org/1999/xlink"
	 x="0px" y="0px" viewBox="0 0 220 220" enable-background="new 0 0 220 220" xml:space="preserve">
<symbol  id="Nieuw_symbool" viewBox="-95.343 -53.812 190.686 107.623">
	<g>
		<path d="M-34.814-12.062H-54.75l-14.446-41.604h-26.147l37.271,107.479h26.581L5.78-53.667h-26.147L-34.814-12.062z"/>
		<path d="M95.343-10.474c0-0.482,0-0.964,0-1.444c0-0.483-0.05-0.964-0.145-1.444v-40.305H72.807v5.489
			c-2.889-1.733-5.947-3.105-9.173-4.117c-3.229-1.011-6.525-1.517-9.896-1.517h-0.145c-5.684,0-11.052,1.106-16.107,3.322
			c-5.057,2.215-9.56,5.393-13.507,9.535c-3.757,4.045-6.671,8.595-8.74,13.651c-2.072,5.056-3.153,10.376-3.25,15.963v22.247
			c0,5.778,1.035,11.218,3.105,16.324c2.07,5.104,5.031,9.679,8.885,13.724c3.947,4.14,8.45,7.318,13.507,9.534
			c5.056,2.214,10.424,3.323,16.107,3.323h0.145c5.584,0,10.906-1.108,15.963-3.323c5.056-2.216,9.606-5.395,13.651-9.534
			c3.851-4.142,6.812-8.812,8.884-14.013c2.07-5.201,3.106-10.69,3.106-16.468h-24.27c0,2.6-0.458,5.056-1.372,7.367
			c-0.917,2.312-2.167,4.334-3.756,6.067c-1.59,1.733-3.445,3.106-5.562,4.117c-2.119,1.011-4.383,1.517-6.789,1.517
			c-2.409,0-4.647-0.505-6.718-1.517c-2.072-1.011-3.9-2.384-5.489-4.117s-2.842-3.756-3.756-6.067
			c-0.917-2.311-1.373-4.767-1.373-7.367v-20.947c0-2.6,0.456-5.056,1.373-7.367c0.914-2.312,2.167-4.334,3.756-6.067
			s3.417-3.105,5.489-4.117c2.07-1.011,4.309-1.517,6.718-1.517c2.792,0,5.32,0.625,7.584,1.878c2.262,1.25,4.212,2.937,5.851,5.056
			H53.449v22.392h41.894V-10.474z"/>
	</g>
</symbol>
<use xlink:href="#Nieuw_symbool"  width="190.686" height="107.623" id="fixedillustration01_1_" x="-95.343" y="-53.812" transform="matrix(1 0 0 -1 108.4568 113.1494)" overflow="visible"/>
</svg>
