<?xml version="1.0" encoding="utf-8"?>
<!-- Generator: Adobe Illustrator 21.0.2, SVG Export Plug-In . SVG Version: 6.00 Build 0)  -->
<svg version="1.1" id="fixedillustration01" xmlns="http://www.w3.org/2000/svg" xmlns:xlink="http://www.w3.org/1999/xlink"
	 x="0px" y="0px" viewBox="0 0 220 220" enable-background="new 0 0 220 220" xml:space="preserve">
<symbol  id="Nieuw_symbool" viewBox="-97.208 -69.166 194.416 138.332">
	<g>
		<path d="M-97.208-38.11l46.299,107.276h11.912L7.02-38.11H-4.608L-20.137-2.092h-49.916L-85.651-38.11H-97.208z M-65.869,7.622
			h41.549l-20.633,49.207L-65.869,7.622z"/>
		<path d="M97.208,41.301v-68.066c0-4.68-0.177-8.544-0.531-11.593s-1.206-6.038-2.553-8.97c-1.348-2.93-3.416-5.908-6.204-8.934
			c-3.782-4.112-8.497-7.291-14.146-9.536s-11.38-3.368-17.193-3.368c-5.862,0-11.511,1.229-16.946,3.688
			c-5.437,2.458-10.104,5.896-14.003,10.316s-6.559,9.465-7.977,15.138h10.423c6.665-12.573,16.449-18.86,29.354-18.86
			c3.545,0,6.972,0.533,10.281,1.599c3.308,1.065,6.333,2.641,9.075,4.724c2.741,2.085,4.963,4.595,6.665,7.53
			c1.56,2.795,2.528,5.46,2.907,7.992c0.378,2.533,0.567,5.979,0.567,10.336v4.334c-1.608-3.798-4.054-7.024-7.339-9.683
			c-3.286-2.657-6.996-4.65-11.132-5.979c-4.137-1.329-8.331-1.993-12.585-1.993c-5.2,0-10.293,1.027-15.28,3.081
			s-9.442,4.899-13.365,8.537c-2.789,2.645-5.104,5.514-6.948,8.606c-1.844,3.094-3.226,6.4-4.147,9.919S14.748-2.62,14.748,1.349
			c0,4.958,0.826,9.799,2.481,14.521c1.654,4.723,3.355,8.053,5.105,9.99c4.915,6.259,10.104,10.693,15.562,13.301
			c5.46,2.608,11.238,3.913,17.336,3.913c4.255,0,8.426-0.642,12.515-1.922c4.088-1.282,7.799-3.204,11.132-5.768
			c3.332-2.563,6.015-5.743,8.048-9.54v15.457H97.208z M54.95,32.651c-5.342,0-10.281-1.38-14.819-4.139
			c-4.537-2.758-8.106-6.473-10.706-11.142s-3.899-9.668-3.899-14.997c0-4.245,0.732-8.312,2.198-12.203
			c1.464-3.891,3.556-7.322,6.274-10.293c2.718-2.972,5.956-5.294,9.714-6.968c3.758-1.675,7.858-2.511,12.302-2.511
			c8.792,0,16.047,2.994,21.768,8.984c2.74,2.876,4.928,6.33,6.558,10.363c1.631,4.032,2.446,7.958,2.446,11.778
			c0,4.433-0.84,8.583-2.517,12.45c-1.679,3.866-3.924,7.157-6.736,9.869s-6.192,4.858-10.139,6.438
			C63.446,31.861,59.299,32.651,54.95,32.651z"/>
	</g>
</symbol>
<use xlink:href="#Nieuw_symbool"  width="194.416" height="138.332" id="fixedillustration01_1_" x="-97.208" y="-69.166" transform="matrix(1 0 0 -1 110.6455 115.3203)" overflow="visible"/>
</svg>
