<?xml version="1.0" encoding="utf-8"?>
<!-- Generator: Adobe Illustrator 21.0.2, SVG Export Plug-In . SVG Version: 6.00 Build 0)  -->
<svg version="1.1" id="fixedillustration01" xmlns="http://www.w3.org/2000/svg" xmlns:xlink="http://www.w3.org/1999/xlink"
	 x="0px" y="0px" viewBox="0 0 220 220" enable-background="new 0 0 220 220" xml:space="preserve">
<symbol  id="Nieuw_symbool" viewBox="-84.76 -84.064 169.52 168.128">
	<g>
		<path d="M25.638-11.141c-0.887-0.929-2.018-1.984-3.387-3.165c-1.373-1.183-2.912-2.374-4.621-3.577
			c-1.709-1.202-3.557-2.373-5.539-3.513c-1.984-1.14-4.01-2.152-6.078-3.039c-2.068-0.886-4.146-1.592-6.234-2.12
			c-2.089-0.527-4.104-0.791-6.045-0.791c-1.351,0-2.712,0.232-4.083,0.696c-1.372,0.465-2.617,1.319-3.734,2.563
			c-1.119,1.244-2.037,2.964-2.754,5.159c-0.718,2.193-1.076,5.042-1.076,8.546c0,1.477,0.105,3.07,0.317,4.779
			c0.21,1.709,0.484,3.555,0.823,5.539c-2.364-4.77-5.033-8.979-8.008-12.629c-2.975-3.651-6.14-6.71-9.495-9.179
			s-6.827-4.336-10.413-5.603c-3.587-1.266-7.175-1.898-10.761-1.898c-3.925,0-7.65,0.686-11.173,2.057
			c-3.524,1.372-6.637,3.418-9.337,6.141c-2.701,2.722-4.842,6.108-6.425,10.159c-1.583,4.052-2.374,8.777-2.374,14.18
			c0,4.093,0.475,8.376,1.424,12.85c0.95,4.473,2.331,8.989,4.146,13.546c1.814,4.558,4.009,9.073,6.583,13.546
			c2.574,4.473,5.507,8.725,8.799,12.755c3.292,4.029,6.889,7.764,10.793,11.204c3.903,3.439,8.071,6.415,12.502,8.926
			c4.431,2.51,9.093,4.483,13.989,5.918c4.895,1.434,9.98,2.152,15.256,2.152c1.434,0,2.584-0.117,3.45-0.348
			c0.864-0.232,1.519-0.528,1.962-0.886C-5.412,82.47-5.127,82.102-5,81.722s0.19-0.718,0.19-1.013c0-0.212-0.011-0.402-0.032-0.57
			c-0.021-0.169-0.032-0.296-0.032-0.38v-0.316c1.14-0.675,2.3-1.087,3.481-1.234c1.181-0.148,2.342-0.275,3.481-0.38
			c1.139-0.106,2.215-0.327,3.229-0.665c1.012-0.338,1.898-1.003,2.658-1.994c0.76-0.992,1.361-2.437,1.805-4.336
			s0.664-4.474,0.664-7.723c0-2.532-0.244-5.381-0.729-8.546s-1.129-6.479-1.93-9.938c-0.803-3.461-1.699-6.963-2.691-10.508
			c-0.992-3.544-1.982-6.985-2.975-10.318c-0.991-3.334-1.952-6.479-2.88-9.432c-0.929-2.955-1.709-5.529-2.342-7.723
			c-0.126-1.857-0.232-3.587-0.316-5.19c-0.085-1.605-0.126-3.271-0.126-5.001c0-1.351,0.032-2.458,0.095-3.323
			c0.063-0.865,0.179-1.551,0.348-2.057c0.168-0.507,0.4-0.854,0.696-1.045c0.295-0.19,0.675-0.285,1.14-0.285
			c0.844,0,1.908,0.222,3.196,0.665c1.287,0.443,2.658,1.013,4.115,1.709c1.455,0.696,2.975,1.477,4.557,2.343
			c1.582,0.864,3.102,1.729,4.559,2.595c1.455,0.864,2.816,1.656,4.082,2.374c1.266,0.717,2.32,1.308,3.166,1.772L25.638-11.141z
			 M-4.304,70.708c-1.478,0.421-3.007,0.728-4.589,0.917s-3.113,0.285-4.589,0.285c-3.418,0-6.795-0.655-10.128-1.962
			c-3.334-1.309-6.574-3.092-9.717-5.349c-3.145-2.258-6.14-4.917-8.989-7.976c-2.849-3.061-5.507-6.352-7.976-9.875
			c-2.469-3.524-4.695-7.185-6.678-10.983c-1.984-3.798-3.693-7.586-5.127-11.362c-1.435-3.777-2.532-7.449-3.292-11.015
			c-0.76-3.566-1.14-6.847-1.14-9.843c0-5.951,1.192-10.562,3.577-13.832c2.384-3.271,6.087-4.906,11.109-4.906
			c3.123,0,6.087,0.654,8.894,1.963c2.806,1.308,5.412,3.027,7.817,5.159c2.405,2.13,4.61,4.536,6.615,7.216
			c2.003,2.68,3.755,5.391,5.254,8.135c1.498,2.743,2.732,5.391,3.703,7.944c0.97,2.553,1.667,4.757,2.089,6.615L-4.304,70.708z"/>
		<path d="M44.69-18.674c-2.279-2.025-4.653-3.661-7.122-4.905c-2.469-1.246-4.864-1.868-7.185-1.868
			c-2.025,0-3.998,0.412-5.918,1.234c-1.921,0.823-3.619,2.004-5.096,3.545c-1.478,1.54-2.659,3.419-3.545,5.634
			c-0.887,2.216-1.33,4.716-1.33,7.502c0,3.165,0.443,6.414,1.33,9.749c0.886,3.333,2.109,6.593,3.671,9.78
			c1.562,3.186,3.407,6.193,5.539,9.021c2.131,2.827,4.463,5.295,6.995,7.406c2.532,2.109,5.2,3.787,8.007,5.032
			c2.807,1.244,5.666,1.868,8.578,1.868c0.97,0,1.729-0.19,2.278-0.57c0.548-0.38,1.002-0.813,1.361-1.298
			c0.357-0.485,0.706-0.96,1.044-1.424c0.338-0.465,0.76-0.802,1.267-1.013c0.506-0.211,1.022-0.348,1.551-0.412
			c0.527-0.063,1.065-0.095,1.614-0.095c0.464,0,0.938,0.01,1.424,0.032c0.484,0.021,0.96,0.032,1.425,0.032
			c0.633,0,1.223-0.063,1.772-0.19c0.548-0.127,1.033-0.402,1.455-0.823c0.422-0.422,0.749-1.013,0.981-1.772
			c0.231-0.759,0.349-1.794,0.349-3.102c0-1.098-0.085-2.575-0.254-4.431c-0.169-1.857-0.401-3.925-0.696-6.204
			s-0.623-4.695-0.98-7.248c-0.359-2.554-0.729-5.054-1.108-7.502c-0.886-5.823-1.898-12.049-3.038-18.674
			c1.266,0.717,2.637,1.604,4.114,2.659c1.477,1.054,3.123,2.469,4.938,4.241c1.814,1.771,3.84,3.998,6.077,6.678
			c2.236,2.68,4.748,6.023,7.533,10.034L84.76-9.812c-0.76-1.309-1.741-2.648-2.943-4.02c-1.203-1.372-2.532-2.744-3.988-4.114
			c-1.456-1.372-2.975-2.701-4.558-3.988c-1.582-1.288-3.134-2.501-4.652-3.64c-3.588-2.7-7.449-5.317-11.584-7.85
			c-0.803-4.515-1.752-8.915-2.849-13.198c-1.098-4.283-2.396-8.292-3.894-12.027c-1.498-3.734-3.207-7.163-5.127-10.286
			c-1.921-3.123-4.094-5.802-6.521-8.039c-2.427-2.236-5.138-3.978-8.134-5.223c-2.997-1.244-6.31-1.867-9.938-1.867
			c-1.435,0-2.985,0.148-4.652,0.443c-1.668,0.295-3.208,0.886-4.621,1.772c-1.413,0.886-2.584,2.151-3.513,3.798
			c-0.928,1.646-1.393,3.841-1.393,6.583c0,1.899,0.485,4.041,1.455,6.425c0.972,2.385,2.301,4.896,3.988,7.533
			c1.688,2.638,3.692,5.381,6.014,8.229c2.32,2.848,4.843,5.687,7.564,8.514c2.722,2.828,5.57,5.613,8.546,8.355
			c2.975,2.744,5.981,5.36,9.021,7.85L44.69-18.674z M21.332-71.911c1.772,0,3.45,0.518,5.032,1.551
			c1.583,1.035,3.039,2.396,4.368,4.083c1.329,1.688,2.542,3.608,3.64,5.761c1.097,2.152,2.067,4.357,2.912,6.615
			c0.844,2.258,1.561,4.462,2.152,6.614c0.59,2.152,1.054,4.073,1.393,5.761c-1.646-1.097-3.323-2.405-5.032-3.925
			c-1.71-1.52-3.377-3.154-5.001-4.905c-1.625-1.751-3.165-3.555-4.621-5.413c-1.456-1.856-2.733-3.64-3.83-5.349
			c-1.098-1.709-1.962-3.302-2.595-4.779c-0.634-1.477-0.95-2.7-0.95-3.671C18.8-71.129,19.644-71.911,21.332-71.911z M30.7-4.811
			c0-1.056,0.073-2.079,0.222-3.07c0.147-0.992,0.412-1.878,0.792-2.658c0.38-0.782,0.886-1.415,1.519-1.899
			c0.633-0.485,1.435-0.729,2.405-0.729c1.562,0,2.976,0.675,4.241,2.026c1.267,1.35,2.363,2.976,3.292,4.874
			c0.928,1.899,1.678,3.861,2.247,5.887c0.57,2.026,0.938,3.714,1.108,5.065l3.861,18.61c-1.731,0-3.419-0.433-5.064-1.298
			c-1.646-0.865-3.196-2.037-4.652-3.513c-1.456-1.478-2.797-3.165-4.02-5.064c-1.225-1.899-2.279-3.893-3.165-5.982
			C32.6,5.349,31.913,3.249,31.429,1.14C30.943-0.971,30.7-2.955,30.7-4.811z"/>
	</g>
</symbol>
<use xlink:href="#Nieuw_symbool"  width="169.52" height="168.128" id="fixedillustration01_1_" x="-84.76" y="-84.064" transform="matrix(1 0 0 -1 113.7412 111.6128)" overflow="visible"/>
</svg>
