<?xml version="1.0" encoding="utf-8"?>
<!-- Generator: Adobe Illustrator 21.0.2, SVG Export Plug-In . SVG Version: 6.00 Build 0)  -->
<svg version="1.1" id="fixedillustration01" xmlns="http://www.w3.org/2000/svg" xmlns:xlink="http://www.w3.org/1999/xlink"
	 x="0px" y="0px" viewBox="0 0 220 220" enable-background="new 0 0 220 220" xml:space="preserve">
<symbol  id="Nieuw_symbool" viewBox="-89.023 -68.615 178.046 137.231">
	<g>
		<path d="M-89.023-27.802l7.829,1.088l36.899,95.33h12.251l36.248-95.33l7.757-1.088v-9.134h-30.303v9.134l7.974,1.378
			l-6.959,19.429H-59.59l-7.177-19.429l7.975-1.378v-9.134h-30.23V-27.802z M-55.168,4.966h33.492L-38.06,50.275h-0.435
			L-55.168,4.966z"/>
		<path d="M22.255,0.834c0,12.614,2.755,22.787,8.265,30.52c5.51,7.732,13.121,11.599,22.835,11.599c4.93,0,9.255-0.968,12.977-2.9
			c3.722-1.934,6.839-4.737,9.352-8.409l1.306,9.859h12.034v-77.424c0-10.148-2.828-18.135-8.482-23.959
			c-5.654-5.823-13.701-8.735-24.141-8.735c-3.77,0-7.854,0.52-12.251,1.559c-4.398,1.04-8.265,2.453-11.6,4.24l3.697,11.092
			c2.657-1.401,5.8-2.561,9.425-3.479c3.624-0.917,7.151-1.377,10.584-1.377c6.379,0,11.055,1.788,14.027,5.364
			c2.973,3.577,4.458,8.676,4.458,15.296v7.467c-2.562-3.287-5.63-5.775-9.206-7.467c-3.577-1.69-7.685-2.537-12.324-2.537
			c-9.618,0-17.181,3.479-22.69,10.439c-5.51,6.959-8.265,16.068-8.265,27.33V0.834z M36.537-0.689
			c0-7.878,1.668-14.209,5.002-18.993c3.335-4.785,8.409-7.177,15.224-7.177c4.302,0,7.902,0.979,10.802,2.936
			c2.9,1.957,5.292,4.724,7.177,8.301V20.48c-1.837,3.334-4.229,5.98-7.177,7.938c-2.948,1.957-6.5,2.936-10.656,2.936
			c-6.814,0-11.914-2.853-15.296-8.554c-3.384-5.704-5.075-13.025-5.075-21.966V-0.689z"/>
	</g>
</symbol>
<use xlink:href="#Nieuw_symbool"  width="178.046" height="137.231" id="fixedillustration01_1_" x="-89.023" y="-68.615" transform="matrix(1 0 0 -1 107.7485 114.0476)" overflow="visible"/>
</svg>
