<?xml version="1.0" encoding="utf-8"?>
<!-- Generator: Adobe Illustrator 21.0.2, SVG Export Plug-In . SVG Version: 6.00 Build 0)  -->
<svg version="1.1" id="fixedillustration01" xmlns="http://www.w3.org/2000/svg" xmlns:xlink="http://www.w3.org/1999/xlink"
	 x="0px" y="0px" viewBox="0 0 220 220" enable-background="new 0 0 220 220" xml:space="preserve">
<symbol  id="Nieuw_symbool" viewBox="-92.767 -80.488 185.535 160.977">
	<g>
		<path d="M-17.946,2.3h-48.786l-16.755-42.38h-9.281l48.293,120.568h5.338L8.172-40.08h-9.445L-17.946,2.3z M-63.693,9.855h42.955
			l-16.344,43.283c-1.369,3.395-3.012,8.103-4.928,14.126c-1.479-5.256-3.094-10.02-4.846-14.291L-63.693,9.855z"/>
		<path d="M92.767,49.196v-5.667l-18.479-1.15c4.928-6.133,7.392-12.868,7.392-20.204c0-8.597-2.862-15.564-8.583-20.903
			c-5.722-5.338-13.401-8.007-23.038-8.007c-4.053,0-6.898,0.164-8.541,0.492c-3.231-1.697-5.695-3.695-7.393-5.995
			s-2.546-4.737-2.546-7.31c0-2.848,1.081-4.929,3.244-6.242c2.163-1.314,5.791-1.972,10.883-1.972H61.31
			c9.691,0,17.11-1.958,22.258-5.872c5.146-3.915,7.721-9.704,7.721-17.371c0-9.417-3.819-16.686-11.457-21.806
			c-7.639-5.119-18.521-7.679-32.647-7.679c-11.226,0-19.917,2.163-26.077,6.488s-9.239,10.349-9.239,18.068
			c0,6.133,1.901,11.226,5.708,15.276c3.805,4.052,8.965,6.817,15.481,8.296c-2.684,1.149-4.833,2.778-6.447,4.887
			c-1.615,2.107-2.423,4.53-2.423,7.269c0,5.967,3.805,11.224,11.416,15.77C30.401-2.3,26.349,1.054,23.448,5.626
			c-2.902,4.571-4.353,9.814-4.353,15.728c0,8.924,2.833,16.083,8.5,21.477c5.667,5.393,13.318,8.09,22.956,8.09
			c5.858,0,10.402-0.575,13.634-1.725H92.767z M20.491-55.192c0-12.265,9.117-18.397,27.351-18.397
			c23.434,0,35.151,7.474,35.151,22.422c0,5.367-1.835,9.254-5.502,11.663c-3.669,2.408-9.609,3.613-17.823,3.613H45.049
			C28.677-35.892,20.491-42.324,20.491-55.192z M27.308,21.354c0-6.899,2.095-12.252,6.283-16.057
			c4.188-3.806,9.786-5.708,16.796-5.708c7.445,0,13.153,1.89,17.124,5.667c3.97,3.778,5.955,9.253,5.955,16.426
			c0,7.61-2.041,13.318-6.119,17.125c-4.08,3.805-9.788,5.708-17.124,5.708c-7.119,0-12.718-2.04-16.796-6.119
			C29.347,34.316,27.308,28.635,27.308,21.354z"/>
	</g>
</symbol>
<use xlink:href="#Nieuw_symbool"  width="185.535" height="160.977" id="fixedillustration01_1_" x="-92.767" y="-80.488" transform="matrix(1 0 0 -1 109.6458 118.8926)" overflow="visible"/>
</svg>
