<?xml version="1.0" encoding="utf-8"?>
<!-- Generator: Adobe Illustrator 21.0.2, SVG Export Plug-In . SVG Version: 6.00 Build 0)  -->
<svg version="1.1" id="fixedillustration01" xmlns="http://www.w3.org/2000/svg" xmlns:xlink="http://www.w3.org/1999/xlink"
	 x="0px" y="0px" viewBox="0 0 220 220" enable-background="new 0 0 220 220" xml:space="preserve">
<symbol  id="Nieuw_symbool" viewBox="-90.279 -78.313 180.558 156.626">
	<g>
		<path d="M-26.842-41.021V9.548h-36.145v21.638h36.145v1.475c0,4.971-0.848,9.289-2.541,12.95c-1.694,3.66-4.071,6.447-7.131,8.36
			c-3.061,1.912-6.721,2.869-10.982,2.869c-6.557,0-11.611-2.2-15.163-6.598c-3.553-4.399-5.328-10.751-5.328-19.056v-72.207
			h-22.293v71.469c0,9.725,1.804,18.222,5.415,25.49c3.609,7.266,8.681,12.812,15.218,16.638c6.536,3.824,13.96,5.737,22.274,5.737
			c8.312,0,15.695-1.914,22.149-5.737c6.455-3.825,11.486-9.372,15.096-16.638c3.609-7.268,5.415-15.765,5.415-25.49v-71.469
			H-26.842z"/>
		<path d="M90.279-36.349c0-6.61-0.956-12.499-2.868-17.662c-1.914-5.164-4.659-9.562-8.237-13.196
			c-3.579-3.633-7.979-6.393-13.195-8.277c-5.219-1.886-10.997-2.828-17.335-2.828c-7.65,0-16.774,1.225-27.375,3.673v19.624
			c9.562-2.799,18.577-4.2,27.047-4.2c7.213,0,12.704,1.777,16.475,5.333c3.77,3.555,5.655,8.778,5.655,15.67v37.658
			c0,7.055-1.913,12.647-5.737,16.777c-3.825,4.129-8.907,6.194-15.245,6.194c-3.88,0-7.363-0.916-10.449-2.746
			c-3.088-1.831-5.506-4.426-7.254-7.786c-1.749-3.36-2.623-7.171-2.623-11.434c0-4.7,0.902-8.865,2.705-12.499
			s4.303-6.407,7.499-8.318c3.197-1.914,6.897-2.869,11.106-2.869c4.807,0,9.917,1.558,15.326,4.672v-20.408
			c-5.191-2.131-10.847-3.196-16.966-3.196c-7.704,0-14.589,1.775-20.654,5.327c-6.064,3.552-10.832,8.537-14.302,14.958
			C10.38-15.463,8.647-8.237,8.647-0.205c0,6.174,1.024,11.884,3.073,17.13s4.89,9.739,8.523,13.482
			c3.634,3.742,7.896,6.625,12.786,8.647c4.89,2.021,10.204,3.032,15.941,3.032c7.758,0,14.835-1.817,21.228-5.45
			c6.393-3.634,11.337-8.593,14.835-14.876c2.075-3.606,3.469-7.595,4.18-11.966c0.71-4.372,1.065-9.562,1.065-15.572V-36.349z"/>
	</g>
</symbol>
<use xlink:href="#Nieuw_symbool"  width="180.558" height="156.626" id="fixedillustration01_1_" x="-90.279" y="-78.313" transform="matrix(1 0 0 -1 112.0269 110.0688)" overflow="visible"/>
</svg>
