<?xml version="1.0" encoding="utf-8"?>
<!-- Generator: Adobe Illustrator 21.0.2, SVG Export Plug-In . SVG Version: 6.00 Build 0)  -->
<svg version="1.1" id="fixedillustration01" xmlns="http://www.w3.org/2000/svg" xmlns:xlink="http://www.w3.org/1999/xlink"
	 x="0px" y="0px" viewBox="0 0 220 220" enable-background="new 0 0 220 220" xml:space="preserve">
<symbol  id="Nieuw_symbool" viewBox="-58.742 -80.856 117.485 161.711">
	<g>
		<path d="M-16.506-1.176h-18.269l-4.432-32.017h9.768v-10.22h-29.303v10.22h8.592l16.642,103.919h-12.21v10.129h26.5L-0.498-33.193
			h8.32v-10.22H-21.48v10.22h9.858L-16.506-1.176z M-33.509,8.411h15.556l-7.959,54.085L-33.509,8.411z"/>
		<path d="M51.326-42.508c0-5.427-0.362-10.476-1.085-15.149c-0.724-4.672-1.945-8.728-3.663-12.164
			c-1.719-3.437-4.056-6.135-7.01-8.095c-2.955-1.959-6.633-2.939-11.034-2.939c-2.05,0-3.92,0.242-5.606,0.724
			c-1.689,0.483-3.227,1.101-4.613,1.854c-1.388,0.754-2.654,1.582-3.799,2.486c-1.146,0.905-2.17,1.81-3.074,2.714l5.426,8.592
			c0.602-0.602,1.281-1.28,2.035-2.035c0.754-0.753,1.597-1.447,2.532-2.08c0.935-0.633,1.944-1.16,3.03-1.583
			c1.085-0.421,2.261-0.633,3.527-0.633c2.472,0,4.49,0.633,6.06,1.899c1.567,1.267,2.788,3.106,3.663,5.517
			c0.873,2.413,1.477,5.353,1.809,8.818c0.33,3.468,0.497,7.432,0.497,11.894v5.245c-1.388-2.532-2.909-4.566-4.567-6.104
			c-1.659-1.537-3.904-2.307-6.737-2.307c-2.533,0-4.93,0.724-7.19,2.171c-2.262,1.447-4.267,3.935-6.015,7.462
			c-1.749,3.527-3.136,8.26-4.16,14.199c-1.026,5.938-1.538,13.37-1.538,22.294c0,7.598,0.453,14.2,1.357,19.807
			s2.17,10.265,3.799,13.974c1.627,3.708,3.586,6.48,5.878,8.32c2.291,1.839,4.794,2.759,7.507,2.759
			c2.411,0,4.612-0.845,6.603-2.533c1.989-1.688,3.677-3.798,5.064-6.331v6.421h18.722v-10.13h-7.416V-42.508z M30.525-36.177
			c2.049,0,3.889,1.16,5.517,3.482c1.628,2.32,2.954,5.472,3.979,9.451v42.056c-0.483,2.11-1.04,4.174-1.673,6.195
			c-0.633,2.02-1.343,3.798-2.126,5.336c-0.784,1.538-1.628,2.773-2.532,3.708c-0.904,0.934-1.84,1.402-2.804,1.402
			c-2.955,0-5.352-3.061-7.19-9.18c-1.84-6.121-2.758-14.787-2.758-26.002c0-11.758,0.814-20.771,2.441-27.042
			C25.007-33.042,27.389-36.177,30.525-36.177z"/>
	</g>
</symbol>
<use xlink:href="#Nieuw_symbool"  width="117.485" height="161.711" id="fixedillustration01_1_" x="-58.742" y="-80.856" transform="matrix(1 0 0 -1 109.8337 113.8347)" overflow="visible"/>
</svg>
