<?xml version="1.0" encoding="utf-8"?>
<!-- Generator: Adobe Illustrator 21.0.2, SVG Export Plug-In . SVG Version: 6.00 Build 0)  -->
<svg version="1.1" id="fixedillustration01" xmlns="http://www.w3.org/2000/svg" xmlns:xlink="http://www.w3.org/1999/xlink"
	 x="0px" y="0px" viewBox="0 0 220 220" enable-background="new 0 0 220 220" xml:space="preserve">
<symbol  id="Nieuw_symbool" viewBox="-95.412 -73.451 190.824 146.902">
	<g>
		<path d="M-14.541-36.576l-7.945,26.083h-39.948l-7.945-26.083h-25.033l38.674,110.027h28.406L10.493-36.576H-14.541z
			 M-28.031,8.994c-7.345,23.634-11.48,37-12.404,40.098c-0.925,3.098-1.587,5.546-1.986,7.345
			c-1.649-6.396-6.371-22.211-14.166-47.443H-28.031z"/>
		<path d="M95.412,47.219V35.601l-13.117-3.373c2.398-3.748,3.598-7.945,3.598-12.592c0-8.994-3.136-16.001-9.406-21.024
			C70.216-6.409,61.509-8.92,50.366-8.92l-4.122,0.226L42.872-8.32c-2.35-1.799-3.523-3.798-3.523-5.996
			c0-3.298,4.197-4.946,12.592-4.946h14.24c9.193,0,16.201-1.975,21.024-5.921c4.821-3.948,7.232-9.744,7.232-17.389
			c0-9.793-4.085-17.389-12.255-22.785c-8.169-5.396-19.899-8.094-35.188-8.094c-11.692,0-20.624,2.036-26.795,6.108
			c-6.172,4.072-9.257,9.78-9.257,17.126c0,5.047,1.574,9.269,4.723,12.666c3.147,3.397,7.769,5.82,13.865,7.271
			c-2.349,0.999-4.397,2.635-6.146,4.909c-1.75,2.273-2.623,4.685-2.623,7.232c0,3.197,0.924,5.858,2.772,7.982
			c1.849,2.123,4.521,4.209,8.02,6.259C27.156-2,23.672,1.049,21.098,5.246c-2.574,4.197-3.86,9.144-3.86,14.84
			c0,9.144,2.973,16.214,8.92,21.211c5.945,4.996,14.439,7.495,25.482,7.495c2.349,0,5.134-0.213,8.357-0.637
			c3.223-0.425,5.283-0.738,6.183-0.937H95.412z M30.729-48.418c0-3.148,1.511-5.621,4.535-7.42
			c3.022-1.799,7.257-2.698,12.703-2.698c8.194,0,14.615,1.124,19.263,3.372c4.646,2.249,6.971,5.321,6.971,9.219
			c0,3.148-1.375,5.322-4.123,6.521s-6.996,1.799-12.741,1.799H45.495c-4.197,0-7.708-0.986-10.53-2.961
			C32.14-42.559,30.729-45.17,30.729-48.418z M39.049,19.786c0-4.547,1.037-8.145,3.11-10.792c2.073-2.649,5.234-3.973,9.481-3.973
			c4.297,0,7.444,1.323,9.444,3.973c1.997,2.647,2.997,6.245,2.997,10.792c0,10.093-4.147,15.14-12.441,15.14
			C43.246,34.927,39.049,29.879,39.049,19.786z"/>
	</g>
</symbol>
<use xlink:href="#Nieuw_symbool"  width="190.824" height="146.902" id="fixedillustration01_1_" x="-95.412" y="-73.451" transform="matrix(1 0 0 -1 108.7903 115.7942)" overflow="visible"/>
</svg>
