<?xml version="1.0" encoding="utf-8"?>
<!-- Generator: Adobe Illustrator 21.0.2, SVG Export Plug-In . SVG Version: 6.00 Build 0)  -->
<svg version="1.1" id="fixedillustration01" xmlns="http://www.w3.org/2000/svg" xmlns:xlink="http://www.w3.org/1999/xlink"
	 x="0px" y="0px" viewBox="0 0 220 220" enable-background="new 0 0 220 220" xml:space="preserve">
<symbol  id="Nieuw_symbool" viewBox="-93.459 -68.067 186.919 136.135">
	<g>
		<path d="M-93.459,68.067H9.412V-68.067H-93.459V68.067z M-20.119-49.57H4.382L-30.503,51.03h-24.826L-90.214-49.57h24.338
			l13.63,38.942h18.66L-20.119-49.57z"/>
		<path d="M93.459,68.067V-68.067H7.462V68.067H93.459z M88.429,0.568H49.326v-20.932h12.656c-1.517-2.057-3.354-3.651-5.518-4.787
			c-2.165-1.136-4.543-1.703-7.139-1.703c-2.271,0-4.381,0.459-6.328,1.379c-1.947,0.918-3.651,2.19-5.111,3.813
			c-1.46,1.622-2.624,3.488-3.488,5.598c-0.867,2.109-1.299,4.406-1.299,6.896v19.796c0,2.378,0.432,4.65,1.299,6.815
			c0.864,2.163,2.028,4.057,3.488,5.679s3.164,2.893,5.111,3.813c1.947,0.917,4.057,1.379,6.328,1.379s4.406-0.461,6.409-1.379
			c2-0.92,3.731-2.19,5.192-3.813c1.46-1.623,2.621-3.517,3.488-5.679c0.864-2.165,1.298-4.437,1.298-6.815h22.716
			c0,5.408-0.973,10.547-2.92,15.415s-4.706,9.193-8.275,12.981c-3.788,3.894-8.06,6.868-12.818,8.924
			c-4.762,2.054-9.735,3.083-14.928,3.083h-0.162c-10.818,0-20.067-4.003-27.746-12.007c-3.57-3.788-6.303-8.088-8.194-12.9
			c-1.895-4.814-2.896-9.872-3.002-15.171V-9.816c0.106-5.302,1.136-10.304,3.083-15.009c1.947-4.706,4.649-8.952,8.113-12.737
			c7.679-8.007,16.928-12.008,27.746-12.008h0.162c3.136,0,6.191,0.459,9.167,1.38c2.975,0.918,5.867,2.19,8.682,3.812v-5.192
			h20.931v37.807c0,0.54,0.025,0.999,0.081,1.379c0.054,0.378,0.081,0.784,0.081,1.217V0.568z"/>
	</g>
</symbol>
<use xlink:href="#Nieuw_symbool"  width="186.919" height="136.135" id="fixedillustration01_1_" x="-93.459" y="-68.067" transform="matrix(1 0 0 -1 109.981 116.2686)" overflow="visible"/>
</svg>
