<?xml version="1.0" encoding="utf-8"?>
<!-- Generator: Adobe Illustrator 21.0.2, SVG Export Plug-In . SVG Version: 6.00 Build 0)  -->
<svg version="1.1" id="fixedillustration01" xmlns="http://www.w3.org/2000/svg" xmlns:xlink="http://www.w3.org/1999/xlink"
	 x="0px" y="0px" viewBox="0 0 220 220" enable-background="new 0 0 220 220" xml:space="preserve">
<symbol  id="Nieuw_symbool" viewBox="-100.157 -61.644 200.315 123.288">
	<g>
		<path d="M14.463-22.27c-1.225-2.259-3.137-5.664-5.738-10.217C2.448-32.181-1.933-32.028-4.42-32.028
			c-8.609,0-18.022-0.861-28.239-2.583c0.956,6.581,1.435,13.087,1.435,19.516c0,7.078-0.594,12.607-1.779,16.587
			c-6.313,0.612-16.148,1.665-29.502,3.157c-1.263-4.477-2.717-8.974-4.362-13.488c-1.875-5.166-3.903-9.566-6.084-13.201
			c2.257-0.536,8.093-1.033,17.506-1.492c-0.727-4.937-1.09-9.451-1.09-13.546c-8.687,2.908-16.798,5.299-24.336,7.175
			c-5.013,1.263-11.441,2.602-19.285,4.018c1.072,1.378,2.373,3.137,3.903,5.28l3.042,4.19c1.377-0.574,3.578-1.55,6.601-2.928
			C-80.835-11.384-75.63,0.172-71,15.325c4.897,15.879,7.538,28.928,7.92,39.145c5.701,0.689,10.982,1.55,15.842,2.583
			c5.012,1.109,10.426,2.64,16.243,4.592c5.663-9.222,11.881-23.131,18.655-41.728C-9.24,10.924-5.129-0.976,0-15.785
			c0.727-1.99,2.85-3.539,6.371-4.648C9.088-21.046,11.785-21.659,14.463-22.27z M-29.387,29.1c0,5.242-3.559,7.863-10.676,7.863
			c-5.166,0-9.834-1.377-14.005-4.133c-4.362-2.87-6.543-6.18-6.543-9.93c0-4.975,4.266-7.461,12.799-7.461
			C-35.529,15.439-29.387,19.993-29.387,29.1z"/>
		<path d="M100.157,27.091l-1.263-12.914c-1.187-0.383-2.259-0.574-3.215-0.574c-2.334,0-4.993,0.822-7.978,2.468
			c6.351-11.25,9.527-23.438,9.527-36.562c0-3.215-0.229-6.353-0.688-9.413c-1.761-11.441-5.434-19.4-11.021-23.877
			c-6.505-5.242-17.602-7.863-33.29-7.863c-13.546,0-23.858,2.372-30.937,7.117c-4.21,2.869-6.945,6.256-8.208,10.159
			c-0.957,2.946-1.435,5.376-1.435,7.289c0,5.815,4.821,9.661,14.464,11.537c4.055,0.765,8.016,1.147,11.881,1.147
			c5.51,0,9.968-0.784,13.373-2.354c3.291-1.569,4.937-3.597,4.937-6.084c0-5.662-3.788-9.776-11.364-12.34
			c-5.051-1.722-8.036-2.793-8.954-3.215c-1.799-0.841-2.697-1.74-2.697-2.697c0-1.415,3.021-2.124,9.068-2.124
			c7.538,0,13.985,1.34,19.343,4.019c4.477,2.219,7.729,7.614,9.757,16.186c1.34,5.739,2.01,11.938,2.01,18.597
			c0,1.568-0.077,2.755-0.23,3.559c-1.263-2.984-4.361-5.377-9.298-7.175c-4.4-1.569-9.261-2.354-14.579-2.354
			c-8.035,0-14.388,2.851-19.056,8.553c-3.443,4.17-5.663,9.393-6.658,15.669c-0.88,5.396-1.319,9.394-1.319,11.996
			c0,4.974,1.224,8.628,3.673,10.963c2.793,2.716,7.538,4.075,14.234,4.075c3.138,0,7.098-0.364,11.882-1.091
			c8.188-1.187,14.291-3.54,18.31-7.06c0.382-0.307,0.573-0.211,0.573,0.287c0,1.147-0.746,4.553-2.238,10.216
			c8.532-5.166,16.683-7.749,24.451-7.749C96.312,25.484,98.626,26.02,100.157,27.091z M76.281,0.746
			c0,2.487-2.698,5.013-8.094,7.577c-4.821,2.257-9.757,3.386-14.808,3.386c-4.898,0-8.954-0.459-12.169-1.377
			c-3.636-1.033-5.452-2.488-5.452-4.362c0-2.259,2.688-4.487,8.064-6.687c5.375-2.201,11.028-3.301,16.96-3.301
			c4.668,0,8.418,0.449,11.25,1.349C74.864-1.771,76.281-0.631,76.281,0.746z"/>
	</g>
</symbol>
<use xlink:href="#Nieuw_symbool"  width="200.315" height="123.288" id="fixedillustration01_1_" x="-100.157" y="-61.644" transform="matrix(1 0 0 -1 109.8318 111.9692)" overflow="visible"/>
</svg>
