<?xml version="1.0" encoding="utf-8"?>
<!-- Generator: Adobe Illustrator 21.0.2, SVG Export Plug-In . SVG Version: 6.00 Build 0)  -->
<svg version="1.1" id="fixedillustration01" xmlns="http://www.w3.org/2000/svg" xmlns:xlink="http://www.w3.org/1999/xlink"
	 x="0px" y="0px" viewBox="0 0 220 220" enable-background="new 0 0 220 220" xml:space="preserve">
<symbol  id="Nieuw_symbool" viewBox="-95.009 -54.517 190.019 109.034">
	<g>
		<path d="M-59.242,17.017L-72.95-32.616c-0.106-0.421-0.185-0.814-0.237-1.182c-0.054-0.369-0.079-0.709-0.079-1.023
			c-0.106-0.315-0.158-0.657-0.158-1.024c0-0.369,0-0.709,0-1.024c0-1.472,0.394-2.812,1.182-4.018
			c0.788-1.209,1.915-2.127,3.387-2.758l2.521-1.103c0.84-0.527,1.497-1.13,1.97-1.812c0.473-0.684,0.709-1.444,0.709-2.284
			c0-1.157-0.5-2.049-1.497-2.679c-1-0.63-2.391-0.945-4.176-0.945h-19.538c-1.788,0-3.257,0.367-4.412,1.103
			c-1.157,0.734-1.733,1.733-1.733,2.994c0,0.84,0.261,1.575,0.788,2.206c0.524,0.63,1.418,1.206,2.679,1.733
			c3.255,1.47,5.646,3.15,7.169,5.042c1.521,1.891,2.809,4.83,3.86,8.823l17.332,63.499L-59.242,17.017z M-26.785,52.626
			l21.271-90.442c0.104-0.421,0.182-0.763,0.236-1.024c0.052-0.263,0.13-0.551,0.236-0.866c0.418-1.473,0.918-2.548,1.497-3.23
			c0.576-0.684,1.442-1.235,2.6-1.654c0.104-0.105,0.236-0.185,0.394-0.236c0.158-0.054,0.288-0.078,0.395-0.078
			c1.048-0.527,1.758-1.079,2.127-1.655c0.366-0.578,0.551-1.339,0.551-2.284c0-1.157-0.499-2.049-1.496-2.679
			c-1-0.63-2.497-0.945-4.491-0.945h-38.445c-1.472,0-2.678,0.34-3.624,1.024c-0.945,0.682-1.418,1.654-1.418,2.915
			c0,0.63,0.079,1.154,0.236,1.575c0.158,0.419,0.394,0.788,0.709,1.103c0.315,0.21,0.682,0.446,1.103,0.71
			c0.418,0.261,0.891,0.551,1.418,0.866c0.104,0.104,0.209,0.182,0.315,0.236c0.104,0.052,0.209,0.079,0.315,0.079
			c0.734,0.524,1.261,1.075,1.576,1.654c0.315,0.576,0.473,1.339,0.473,2.284l-0.158,2.206l-2.521,11.188h-21.428l2.048,9.453
			h17.332l-14.181,62.238l1.891,7.563H-26.785z"/>
		<path d="M49.001,54.517v-8.508c-2.312-0.524-4.019-1.704-5.121-3.541c-1.103-1.836-1.654-4.273-1.654-7.312v-71.414
			c0-2.938,0.394-5.087,1.182-6.45c0.788-1.364,2.179-2.465,4.176-3.302v-8.508h-0.788c-1.157,0-2.548,0.185-4.176,0.551
			c-1.63,0.369-3.336,0.867-5.12,1.497c-1.052,0.209-2.049,0.524-2.994,0.945c-0.945,0.419-1.891,0.892-2.836,1.418
			c-8.3,4.299-14.708,10.67-19.223,19.114C7.929-22.549,5.671-12.716,5.671-1.494c0,11.849,2.23,22.179,6.696,30.988
			c4.464,8.809,10.793,15.471,18.986,19.981c2.31,1.261,4.464,2.258,6.46,2.994c1.994,0.734,3.991,1.261,5.987,1.576
			c0.84,0.104,1.706,0.182,2.601,0.236c0.891,0.052,1.758,0.079,2.6,0.079V54.517z M53.885-45.852
			c2.416,0.524,4.097,1.521,5.042,2.994c0.945,1.47,1.419,3.624,1.419,6.46v22.689c0,1.679-0.212,2.888-0.631,3.624
			c-0.421,0.733-1.472,1.363-3.151,1.891c-0.314,0-0.63,0.052-0.945,0.157c-0.315,0.104-0.685,0.21-1.103,0.315
			c-1.157,0.209-2.049,0.682-2.679,1.418c-0.63,0.733-0.945,1.627-0.945,2.679c0,1.47,0.552,2.546,1.654,3.229
			c1.103,0.683,2.809,1.024,5.121,1.024h2.679h28.203c2.415-0.105,4.097-0.473,5.042-1.101s1.418-1.779,1.418-3.454
			c0-0.63-0.105-1.206-0.314-1.728c-0.212-0.524-0.527-1.049-0.945-1.571c-0.212-0.105-0.421-0.264-0.631-0.473
			c-0.212-0.209-0.473-0.418-0.788-0.628c-0.211-0.105-0.369-0.212-0.473-0.314c-0.105-0.104-0.211-0.21-0.314-0.314
			c-0.736-0.418-1.182-0.97-1.34-1.649c-0.157-0.682-0.236-1.703-0.236-3.062v-25.917c-0.526-0.63-1.13-1.23-1.812-1.807
			c-0.685-0.576-1.394-1.128-2.127-1.649c-1.157-0.84-2.391-1.677-3.703-2.514c-1.314-0.837-2.6-1.622-3.86-2.356
			c-0.842-0.418-1.654-0.839-2.442-1.258c-0.787-0.418-1.551-0.785-2.284-1.098c-3.048-1.366-6.251-2.389-9.611-3.072
			c-3.363-0.683-6.775-1.076-10.242-1.182V-45.852z M55.303,46.166v8.351c4.2-0.527,7.957-1.103,11.267-1.733
			c3.309-0.63,6.381-1.524,9.217-2.679l3.624-0.788c0.315-0.105,0.604-0.157,0.867-0.157c0.261,0,0.497,0.052,0.709,0.157
			c0.314,0.209,0.682,0.552,1.103,1.024c0.419,0.473,1.049,1.233,1.891,2.285c0.104,0.209,0.236,0.367,0.395,0.473
			c0.157,0.104,0.288,0.209,0.394,0.315c0.419,0.315,0.84,0.552,1.261,0.709c0.418,0.158,0.891,0.236,1.418,0.236
			c1.47,0,2.494-0.369,3.072-1.103c0.576-0.736,0.866-2.048,0.866-3.939V19.511c0-1.987-0.342-3.477-1.023-4.471
			c-0.685-0.995-1.761-1.489-3.23-1.489c-1.261,0-2.26,0.312-2.993,0.94c-0.736,0.625-1.367,1.829-1.892,3.607
			c-0.105,0.207-0.157,0.389-0.157,0.546s-0.054,0.34-0.157,0.551c-0.315,1.253-0.736,2.561-1.261,3.919
			c-0.527,1.359-1.157,2.718-1.891,4.077c-0.631,1.462-1.366,2.927-2.206,4.39c-0.842,1.462-1.682,2.821-2.521,4.077
			c-0.527,0.837-1.052,1.596-1.576,2.275c-0.526,0.68-1.051,1.28-1.575,1.802c-1.892,1.984-4.097,3.501-6.618,4.547
			c-2.521,1.044-5.515,1.62-8.981,1.726V46.166z"/>
	</g>
</symbol>
<use xlink:href="#Nieuw_symbool"  width="190.019" height="109.034" id="fixedillustration01_1_" x="-95.009" y="-54.517" transform="matrix(1 0 0 -1 106.7915 102.3025)" overflow="visible"/>
</svg>
