<?xml version="1.0" encoding="utf-8"?>
<!-- Generator: Adobe Illustrator 21.0.2, SVG Export Plug-In . SVG Version: 6.00 Build 0)  -->
<svg version="1.1" id="fixedillustration01" xmlns="http://www.w3.org/2000/svg" xmlns:xlink="http://www.w3.org/1999/xlink"
	 x="0px" y="0px" viewBox="0 0 220 220" enable-background="new 0 0 220 220" xml:space="preserve">
<symbol  id="Nieuw_symbool" viewBox="-91.265 -63.677 182.531 127.354">
	<g>
		<path d="M3.901-33.905c-0.176-0.521-0.566-0.825-1.17-0.91c-0.607-0.088-0.998-0.39-1.172-0.91
			c-0.867,0.173-1.43,0.433-1.689,0.78c-0.435-0.435-0.78-0.673-1.04-0.715c-0.26-0.045-0.477-0.11-0.65-0.195
			c-0.695-0.26-1.215-0.607-1.56-1.04c-0.26,0.085-0.52,0.215-0.78,0.39c-0.26,0.173-0.565,0.303-0.91,0.391
			c-0.955-0.088-1.647-0.175-2.08-0.261c-0.435-0.087-0.825-0.13-1.17-0.13c-0.694,0-1.3,0.065-1.82,0.195s-1.127,0.107-1.82-0.065
			c-0.347-0.174-0.737-0.217-1.17-0.13c-0.435,0.086-0.825-0.087-1.17-0.52c-0.435-0.088-0.695-0.045-0.78,0.13
			c-0.087,0.173-0.347,0.215-0.78,0.13c-0.435-0.26-0.933-0.455-1.495-0.585c-0.565-0.13-1.15-0.282-1.755-0.455
			c-0.52,0.173-0.89,0.498-1.105,0.975c-0.217,0.476-0.542,0.888-0.975,1.235c0.085,0.433,0.108,0.865,0.065,1.3
			c-0.044,0.433,0.021,0.735,0.195,0.91c-0.26,0.261-0.39,0.541-0.39,0.846c0,0.303-0.045,0.67-0.13,1.104
			c-0.348,0.693-0.565,1.256-0.65,1.69c-0.174,0.865-0.39,1.56-0.65,2.08c-0.26,0.52-0.305,0.995-0.13,1.43
			c-0.435,0.433-0.695,0.931-0.78,1.495c-0.087,0.562-0.26,1.278-0.52,2.146c-0.26,0.433-0.37,0.758-0.325,0.975
			c0.042,0.216,0.02,0.41-0.065,0.585c-0.435,0.953-0.65,1.604-0.65,1.95c0,0.346-0.044,0.693-0.13,1.04
			c-0.347,0.78-0.585,1.431-0.715,1.95c-0.13,0.521-0.283,0.995-0.455,1.431c-0.175,0.26-0.348,0.497-0.52,0.715
			c-0.175,0.215-0.348,0.497-0.52,0.845c-0.175,0.346-0.26,0.715-0.26,1.105c0,0.39-0.087,0.758-0.26,1.104
			c-0.175,0.346-0.325,0.65-0.455,0.91s-0.24,0.521-0.325,0.78c-0.174,0.52-0.282,1.061-0.325,1.625
			c-0.045,0.562-0.24,1.061-0.585,1.495c-0.52,0.173-1.041,0.173-1.561,0c-0.52-0.175-0.997-0.305-1.43-0.39
			c-0.26,0-0.542,0.02-0.845,0.064c-0.305,0.043-0.585,0.021-0.845-0.064c-0.607-0.088-1.149-0.195-1.625-0.325
			c-0.477-0.13-0.975-0.11-1.495,0.064c-0.347,0-0.629-0.044-0.845-0.13c-0.218-0.087-0.542-0.13-0.975-0.13
			c-0.26,0.173-0.715,0.237-1.365,0.195c-0.65-0.045-1.235-0.065-1.755-0.065c-0.607-0.087-1.215-0.175-1.82-0.26
			c-0.607-0.087-1.084-0.045-1.43,0.13c-0.955,0.085-1.604,0.173-1.95,0.26c-0.347,0.086-0.65,0.13-0.91,0.13
			c-0.695,0.086-1.345,0.086-1.95,0c-0.607-0.087-1.257-0.044-1.95,0.131c-0.26-0.175-0.564-0.305-0.91-0.391
			c-0.347-0.087-0.607-0.26-0.78-0.52c-0.955,0.173-1.755,0.173-2.405,0c-0.65-0.175-1.452-0.218-2.405-0.13
			c-0.694-0.521-1.04-1.128-1.04-1.82c0-0.695-0.087-1.388-0.26-2.08c-0.175-0.695-0.435-1.322-0.78-1.886
			c-0.347-0.564-0.694-1.149-1.04-1.755c-0.174-0.435-0.347-0.867-0.52-1.3c-0.175-0.435-0.39-0.867-0.65-1.3
			c-0.175-0.435-0.305-0.737-0.39-0.91c-0.087-0.175-0.175-0.348-0.26-0.521c-0.087-0.175-0.175-0.26-0.26-0.26
			c-0.087-0.694-0.217-1.149-0.39-1.365c-0.174-0.217-0.26-0.412-0.26-0.585c-0.175-0.435-0.24-0.824-0.195-1.17
			c0.042-0.348,0.02-0.737-0.065-1.17c-0.174-0.607-0.412-1.128-0.715-1.561c-0.305-0.435-0.455-0.997-0.455-1.689
			c-0.695-0.521-1.215-1.235-1.56-2.146c-0.347-0.91-0.867-1.67-1.56-2.275c-0.087-0.779-0.26-1.517-0.52-2.21
			c-0.26-0.694-0.542-1.365-0.845-2.015c-0.305-0.65-0.542-1.345-0.715-2.08c-0.175-0.735-0.26-1.581-0.26-2.535
			c-0.26-0.173-0.694-0.41-1.3-0.715c-0.607-0.303-1.127-0.325-1.56-0.065c-0.78,0.435-1.453,0.737-2.015,0.91
			c-0.565,0.175-1.062,0.39-1.495,0.649c-0.175,0.088-0.65,0.152-1.43,0.195c-0.78,0.045-1.387,0.065-1.82,0.065
			c-0.607-0.086-1.04-0.086-1.3,0c-0.26,0.087-0.52,0.175-0.78,0.26c-0.348,0-0.672-0.021-0.975-0.065
			c-0.305-0.042-0.672-0.02-1.105,0.065c-1.04,0.175-2.038,0.5-2.99,0.975c-0.953,0.476-1.863,0.846-2.73,1.105
			c0,0.433,0.045,0.801,0.13,1.105c0.087,0.303,0.217,0.67,0.39,1.104c0.175,0.433,0.39,0.715,0.65,0.846
			c0.26,0.13,0.347,0.367,0.26,0.715c0.26,0.692,0.542,1.385,0.845,2.08c0.305,0.692,0.63,1.385,0.975,2.08
			c0.345,0.865,0.605,1.407,0.78,1.625c0.173,0.215,0.346,0.41,0.52,0.585c0.346,0.865,0.585,1.45,0.715,1.755
			c0.13,0.303,0.237,0.54,0.325,0.715c0.173,0.433,0.303,0.78,0.39,1.04c0.085,0.261,0.303,0.605,0.65,1.04l1.17,1.561
			c0.26,0.865,0.52,1.495,0.78,1.885c0.26,0.391,0.476,0.715,0.65,0.976c0.433,0.52,0.78,1.06,1.04,1.625
			c0.26,0.562,0.563,1.19,0.91,1.885c0.345,0.433,0.65,0.845,0.91,1.235c0.26,0.39,0.476,0.845,0.65,1.365
			c0.173,0.605,0.303,0.975,0.39,1.104c0.085,0.13,0.173,0.28,0.26,0.455c0.085,0.521,0.15,0.845,0.195,0.976
			c0.042,0.13,0.107,0.28,0.195,0.455c0.433,0.692,0.8,1.473,1.105,2.34c0.303,0.865,0.67,1.646,1.105,2.34
			c0.172,0.433,0.455,0.823,0.845,1.17c0.39,0.346,0.585,0.822,0.585,1.43c0.433,0.261,0.735,0.628,0.91,1.105
			c0.173,0.476,0.39,0.931,0.65,1.365c0.173,0.433,0.411,0.822,0.715,1.17c0.303,0.346,0.585,0.735,0.845,1.17
			c0.172,0.433,0.368,0.888,0.585,1.365c0.215,0.476,0.455,0.931,0.715,1.365c0.173,0.433,0.39,0.845,0.65,1.235
			c0.26,0.39,0.65,0.67,1.17,0.845c-0.175,0.433-0.152,0.888,0.065,1.365c0.215,0.475,0.41,0.93,0.585,1.365
			c0.173,0.346,0.39,0.67,0.65,0.975c0.26,0.303,0.476,0.628,0.65,0.975l0.65,1.3c0.345,0.865,0.627,1.408,0.845,1.625
			c0.215,0.215,0.368,0.41,0.455,0.585c0.173,0.26,0.238,0.52,0.195,0.78c-0.045,0.26-0.022,0.475,0.065,0.65
			c0.52,0.345,0.91,0.78,1.17,1.3c0.26,0.521,0.562,1.083,0.91,1.69c0.26,0.433,0.52,0.975,0.78,1.625
			c0.26,0.65,0.605,1.235,1.04,1.755c-0.087,0.433-0.044,0.801,0.13,1.105c0.172,0.302,0.345,0.67,0.52,1.105
			c0.172,0.26,0.325,0.54,0.455,0.845c0.13,0.303,0.28,0.585,0.455,0.845c0.605,0.78,0.975,1.473,1.105,2.08
			c0.13,0.605,0.28,1.17,0.455,1.69c0.173,0.433,0.368,0.78,0.585,1.04c0.215,0.26,0.41,0.563,0.585,0.91
			c0.172,0.345,0.303,0.693,0.39,1.04c0.085,0.345,0.302,0.605,0.65,0.78c0.085,0.865,0.28,1.603,0.585,2.21
			c0.303,0.605,0.585,1.255,0.845,1.95c0.26,0.605,0.735,1.213,1.43,1.82c0.085,0.52,0.13,1.04,0.13,1.56s0.085,0.996,0.26,1.43
			c0.173,0.433,0.39,0.78,0.65,1.04c0.26,0.26,0.476,0.563,0.65,0.91c0.345,1.125,0.627,2.058,0.845,2.795
			c0.215,0.735,0.455,1.45,0.715,2.145c0.26,0.605,0.52,1.32,0.78,2.145c0.26,0.823,0.52,1.581,0.78,2.275
			c0.26,0.52,0.498,1.018,0.715,1.495c0.215,0.476,0.411,0.975,0.585,1.495c0.866,0.433,1.516,1.04,1.95,1.82
			c0.433,0.78,0.78,1.646,1.04,2.6c0.52,0.172,0.888,0.238,1.105,0.195c0.215-0.044,0.455-0.065,0.715-0.065
			c0.865-0.175,1.385-0.478,1.56-0.91c0.172-0.435,0.433-0.825,0.78-1.17c0.433-0.52,0.758-0.975,0.975-1.365
			c0.215-0.39,0.411-0.76,0.585-1.105c0.346-0.347,0.715-0.825,1.105-1.43c0.39-0.607,0.67-1.214,0.845-1.82
			c0.173-0.348,0.345-0.737,0.52-1.17c0.173-0.435,0.345-0.868,0.52-1.3c0.26-0.435,0.498-0.91,0.715-1.43
			c0.215-0.52,0.455-1.084,0.715-1.69c0.26-0.695,0.541-1.495,0.845-2.405c0.302-0.91,0.585-1.8,0.845-2.665
			c0.173-0.435,0.28-0.825,0.325-1.17c0.042-0.348,0.15-0.695,0.325-1.04c0.172-0.435,0.325-0.78,0.455-1.04
			c0.13-0.26,0.281-0.52,0.455-0.78c0.346-0.78,0.715-1.625,1.105-2.535c0.39-0.91,0.801-1.842,1.235-2.795
			c0.172-0.26,0.325-0.52,0.455-0.78c0.13-0.26,0.28-0.564,0.455-0.91c0.172-0.174,0.325-0.39,0.455-0.65
			c0.13-0.26,0.28-0.52,0.455-0.78c0.173-0.26,0.325-0.565,0.455-0.91c0.13-0.348,0.325-0.65,0.585-0.91
			c0.26-0.52,0.498-0.975,0.715-1.365c0.215-0.39,0.41-0.932,0.585-1.625c0.173-0.52,0.368-1.17,0.585-1.95
			c0.215-0.78,0.368-1.517,0.455-2.21c0.433-0.78,0.845-1.67,1.235-2.665c0.39-0.998,0.758-1.973,1.105-2.925
			c0.26-0.26,0.498-0.5,0.715-0.715c0.215-0.217,0.455-0.5,0.715-0.845c0.173-0.435,0.346-0.737,0.52-0.91
			c0.173-0.174,0.303-0.347,0.39-0.52c0.345-0.78,0.628-1.54,0.845-2.275c0.215-0.737,0.41-1.453,0.585-2.145
			c0.173-0.435,0.39-0.868,0.65-1.3c0.26-0.435,0.39-0.955,0.39-1.56c0.52-0.695,0.91-1.322,1.17-1.885
			c0.26-0.564,0.476-1.062,0.65-1.495c0.433-0.695,0.735-1.193,0.91-1.495c0.173-0.305,0.346-0.63,0.52-0.975
			c0.605-0.78,1.083-1.605,1.43-2.471c0.173-0.348,0.28-0.715,0.325-1.104c0.042-0.391,0.15-0.716,0.325-0.976
			c0.173-0.607,0.39-1.191,0.65-1.755c0.26-0.564,0.475-1.192,0.65-1.885c0.433-0.348,0.758-0.737,0.975-1.17
			c0.215-0.435,0.41-0.867,0.585-1.301c0.173-0.26,0.345-0.629,0.52-1.104c0.173-0.478,0.345-0.933,0.52-1.365
			c0.26-0.694,0.605-1.388,1.04-2.08c0.433-0.694,0.735-1.388,0.91-2.08c0.172-0.435,0.368-0.867,0.585-1.3
			c0.215-0.435,0.41-0.868,0.585-1.301c0.173-0.435,0.238-0.802,0.195-1.104c-0.045-0.305,0.02-0.585,0.195-0.845
			c0.172-0.436,0.433-0.998,0.78-1.69c0.52-1.735,1.125-3.555,1.821-5.46c0.432-1.128,0.93-2.255,1.494-3.381
			C3.227-31.523,3.639-32.692,3.901-33.905z M-31.072,5.226c0.173,0.345,0.215,0.693,0.13,1.04c-0.087,0.345-0.175,0.735-0.26,1.17
			c-0.087,0.346-0.152,0.735-0.195,1.17c-0.044,0.433-0.152,0.823-0.325,1.17c-0.175,0.345-0.37,0.627-0.585,0.845
			c-0.218,0.215-0.37,0.455-0.455,0.715c-0.175,1.213-0.325,2.275-0.455,3.185s-0.282,1.84-0.455,2.795
			c-0.435,0.345-0.78,0.78-1.04,1.3c-0.52,0.693-0.845,1.278-0.975,1.755c-0.13,0.475-0.24,0.93-0.325,1.365
			c-0.174,0.693-0.347,1.278-0.52,1.755c-0.174,0.475-0.347,0.93-0.52,1.365c-0.174,0.693-0.305,1.3-0.39,1.82
			c-0.087,0.52-0.218,1.04-0.39,1.56c-0.087,0.26-0.175,0.498-0.26,0.715c-0.087,0.215-0.175,0.455-0.26,0.715
			c-0.175,0.52-0.348,1.083-0.52,1.69c-0.175,0.605-0.478,0.996-0.91,1.17c-0.867-0.347-1.345-0.867-1.43-1.56
			c-0.26-0.955-0.564-1.604-0.91-1.95c-0.347-0.348-0.564-0.607-0.65-0.78c-0.175-0.955-0.325-1.625-0.455-2.015
			s-0.282-0.802-0.455-1.235c-0.174-0.435-0.325-0.825-0.455-1.17c-0.13-0.347-0.282-0.694-0.455-1.04
			c-0.175-0.26-0.325-0.52-0.455-0.78c-0.13-0.26-0.24-0.478-0.325-0.65c-0.78-1.475-1.475-2.753-2.08-3.835
			c-0.607-1.084-1.127-2.19-1.56-3.315c-0.175-0.435-0.305-0.845-0.39-1.235c-0.087-0.39-0.217-0.802-0.39-1.235
			c-0.174-0.348-0.39-0.65-0.65-0.91c-0.26-0.26-0.478-0.607-0.65-1.04c-0.087-0.26-0.11-0.5-0.065-0.715
			c0.042-0.218,0.02-0.5-0.065-0.845c-0.607-0.955-0.975-1.712-1.105-2.275c-0.13-0.564-0.282-1.062-0.455-1.495
			c0.953-0.435,1.928-0.63,2.925-0.585c0.996,0.043,1.971,0.065,2.925,0.065c1.646,0.085,3.335,0.195,5.07,0.325
			c1.733,0.13,3.206,0.325,4.42,0.585c1.04,0.173,2.123,0.173,3.25,0C-33.067,4.662-32.027,4.791-31.072,5.226z"/>
		<path d="M91.005,35.778c0.173-0.955,0.261-1.885,0.261-2.795c0-0.91-0.13-1.885-0.391-2.925c-0.175-0.868-0.26-1.453-0.26-1.755
			c0-0.305-0.087-0.585-0.26-0.845c-0.26-1.127-0.37-2.102-0.325-2.925c0.043-0.825-0.022-1.54-0.195-2.145
			c0-1.475-0.13-2.515-0.39-3.121c-0.175-0.78-0.37-1.56-0.585-2.34c-0.218-0.78-0.543-1.647-0.976-2.6
			c0.261-1.127,0.261-2.428,0-3.9c-0.087-0.347-0.194-0.695-0.324-1.04c-0.131-0.347-0.24-0.695-0.325-1.04
			c-0.088-0.175-0.11-0.39-0.065-0.65c0.043-0.26,0.021-0.52-0.064-0.78c-0.175-0.78-0.261-1.365-0.261-1.755s0-0.715,0-0.975
			c-0.087-1.474-0.194-2.6-0.324-3.38c-0.131-0.779-0.283-1.517-0.455-2.21c-0.175-1.475-0.478-2.817-0.91-4.029
			c0.085-0.348,0.194-0.65,0.325-0.91c0.13-0.261,0.237-0.521,0.324-0.78c0-0.867-0.087-1.388-0.26-1.561
			c0.26-0.435,0.433-0.779,0.521-1.04c0.085-0.26,0.085-0.694,0-1.3c0-0.694-0.065-1.3-0.195-1.82
			c-0.13-0.52-0.195-0.997-0.195-1.43c0-0.348,0.065-0.673,0.195-0.975c0.13-0.305,0.237-0.63,0.325-0.976
			c0.173-0.694,0.237-1.43,0.194-2.21c-0.044-0.78-0.194-1.475-0.455-2.08c0.261-1.04,0.411-2.45,0.455-4.226
			c0.043-1.777-0.021-3.402-0.194-4.875c-0.261-0.78-0.37-1.518-0.325-2.21c0.043-0.695,0.021-1.345-0.065-1.95
			c0-0.348-0.022-0.65-0.064-0.91c-0.045-0.26-0.11-0.564-0.195-0.91c0-0.348,0.043-0.672,0.13-0.975
			c0.086-0.305,0.13-0.63,0.13-0.976c-0.175-0.692-0.477-1.43-0.91-2.21c-0.087-0.433-0.217-0.822-0.39-1.17
			c-0.175-0.346-0.305-0.692-0.39-1.04c-0.175-0.521-0.261-1.105-0.261-1.755c0-0.65-0.087-1.278-0.26-1.886
			c-0.175-0.172-0.325-0.41-0.455-0.715c-0.13-0.303-0.325-0.497-0.585-0.585c0-0.605-0.087-1.255-0.26-1.95
			c-0.521-0.433-1.02-0.91-1.495-1.43c-0.478-0.521-1.105-0.91-1.885-1.17c0-0.433-0.175-0.735-0.521-0.91
			c-0.348-0.173-0.607-0.391-0.78-0.65c-0.175-0.173-0.282-0.39-0.324-0.649c-0.045-0.261-0.152-0.476-0.325-0.65
			c-0.348-0.085-0.565-0.303-0.65-0.65c-0.087-0.345-0.217-0.605-0.39-0.78c-1.647-0.865-3.23-1.667-4.745-2.404
			c-1.518-0.735-2.926-1.668-4.226-2.796c-0.435,0.088-1.085-0.042-1.95-0.39c-0.435-0.085-0.845-0.15-1.235-0.195
			c-0.39-0.042-0.845-0.15-1.364-0.324c-0.78-0.173-1.388-0.325-1.82-0.455c-0.435-0.131-0.737-0.238-0.91-0.325
			c-0.435-0.173-0.91-0.261-1.431-0.261c-0.52,0-1.084,0-1.689,0c-0.435,0-0.89-0.02-1.365-0.064
			c-0.478-0.043-0.933-0.065-1.365-0.065c-0.26,0-0.52,0.065-0.78,0.195c-0.26,0.13-0.477,0.195-0.649,0.195
			c-1.475-0.346-2.688-0.521-3.641-0.521c-0.954,0-1.95-0.042-2.99-0.13c-0.26,0-0.542-0.064-0.845-0.195
			c-0.305-0.13-0.585-0.194-0.845-0.194c-0.175,0-0.413,0.044-0.716,0.13c-0.305,0.087-0.542,0.13-0.715,0.13h-1.689
			c-0.348,0.087-0.65,0.175-0.91,0.26c-0.261,0.088-0.478,0.175-0.65,0.26c-0.435,0-0.867-0.042-1.3-0.13
			c-0.435-0.085-0.867-0.13-1.301-0.13c-0.694,0.175-1.345,0.26-1.949,0.26c-0.261,0.175-0.565,0.261-0.91,0.261
			c-0.348,0-0.607,0.045-0.78,0.13c-0.175,0.087-0.455,0.26-0.845,0.52c-0.391,0.261-0.716,0.478-0.976,0.65
			c-0.348,0.087-0.672,0.109-0.975,0.065c-0.305-0.043-0.673,0.021-1.105,0.194c-0.694,0.175-1.215,0.348-1.56,0.521
			c-0.348,0.175-0.868,0.435-1.561,0.78c-0.52,0.26-0.975,0.52-1.365,0.779c-0.39,0.261-0.845,0.565-1.365,0.91
			c-0.174,0.175-0.347,0.37-0.52,0.585c-0.175,0.218-0.348,0.413-0.521,0.585c-0.52,0.435-0.89,0.737-1.104,0.91
			c-0.218,0.175-0.412,0.305-0.585,0.391c-0.435,0.52-0.715,0.802-0.846,0.845c-0.13,0.045-0.239,0.152-0.324,0.325
			c-0.261,0.26-0.543,0.564-0.846,0.91c-0.305,0.347-0.542,0.737-0.715,1.17c-0.435,0.954-0.803,1.56-1.105,1.82
			c-0.305,0.26-0.542,0.564-0.715,0.909c-0.694,1.82-1.084,3.663-1.17,5.525c-0.087,1.865-0.217,3.663-0.39,5.396
			c0.52,0.695,1.19,1.083,2.015,1.17c0.823,0.086,1.711,0.216,2.665,0.391c0.433,0.172,0.846,0.367,1.235,0.585
			c0.39,0.215,0.801,0.237,1.235,0.064c0.26,0.173,0.562,0.303,0.91,0.391c0.345,0.085,0.692,0.215,1.04,0.39
			c0.433,0.085,0.822,0.173,1.17,0.26c0.345,0.086,0.692,0.13,1.04,0.13c0.52-0.087,0.91-0.26,1.17-0.52s0.562-0.607,0.91-1.04
			c0.433-0.695,0.78-1.213,1.04-1.561c0.26-0.345,0.562-0.735,0.91-1.17c0.52-0.692,0.888-1.17,1.104-1.43
			c0.216-0.26,0.455-0.476,0.716-0.65c0.692-0.52,1.234-0.888,1.625-1.104c0.39-0.216,0.758-0.411,1.104-0.585
			c0.521-0.346,0.846-0.541,0.976-0.586c0.13-0.042,0.324-0.149,0.585-0.324c0.52-0.433,1.104-0.888,1.755-1.365
			c0.65-0.476,1.45-0.715,2.405-0.715c0.345-0.433,0.715-0.735,1.104-0.91c0.391-0.173,0.801-0.391,1.235-0.65
			c0.346-0.173,0.65-0.28,0.91-0.325c0.26-0.042,0.52-0.15,0.78-0.325c0.433-0.433,0.735-0.692,0.91-0.779
			c0.172-0.086,0.345-0.173,0.52-0.261c0.521-0.345,1.278-0.67,2.275-0.975c0.995-0.303,1.971-0.368,2.925-0.195
			c0.953,0.175,1.646,0.218,2.08,0.13c0.433-0.085,0.735-0.085,0.91,0c0.605,0,1.235,0.088,1.885,0.261
			c0.65,0.175,1.278,0.347,1.886,0.52c0.26,0.088,0.54,0.175,0.845,0.26c0.303,0.088,0.585,0.261,0.845,0.521
			c0.605,0.175,0.953,0.348,1.04,0.52c0.086,0.175,0.173,0.261,0.261,0.261c1.213,0.607,2.101,1.192,2.665,1.755
			c0.562,0.564,1.147,1.02,1.755,1.365c0.173,0.694,0.476,1.279,0.91,1.755c0.433,0.478,0.822,1.02,1.17,1.625
			c0.26,0.521,0.476,0.867,0.65,1.04c0.085,0.088,0.173,0.13,0.26,0.13c0.085,0.521,0.237,0.846,0.455,0.976
			c0.215,0.13,0.41,0.282,0.585,0.455c0.26,0.52,0.562,1.473,0.91,2.859c0.173,0.173,0.345,0.391,0.52,0.65
			c0.173,0.26,0.346,0.521,0.521,0.78c-0.175,0.605-0.152,1.343,0.064,2.21c0.216,0.865,0.498,1.516,0.846,1.95
			c-0.175,0.173-0.24,0.41-0.195,0.715c0.043,0.303,0.065,0.67,0.065,1.105c-0.521,0.172-0.955,0.02-1.301-0.455
			c-0.347-0.478-0.694-0.846-1.04-1.105c-0.435-0.26-0.845-0.542-1.234-0.845c-0.391-0.305-0.803-0.543-1.235-0.715
			c-0.694-0.261-1.235-0.521-1.625-0.78c-0.391-0.26-0.803-0.478-1.235-0.65c-0.175-0.175-0.39-0.282-0.649-0.325
			c-0.261-0.044-0.565-0.152-0.91-0.324c-0.348-0.175-0.716-0.391-1.105-0.65s-0.803-0.478-1.235-0.65
			c-0.435-0.175-0.867-0.282-1.3-0.325c-0.435-0.044-0.91-0.152-1.43-0.324c-0.521-0.088-1.04-0.175-1.561-0.261
			c-0.52-0.087-1.17-0.174-1.95-0.26c-0.347,0-0.672,0.021-0.975,0.065c-0.305,0.042-0.673,0.064-1.105,0.064
			c-1.04-0.087-1.95-0.13-2.729-0.13c-0.78,0-1.518,0.346-2.211,1.04c-0.52,0.086-0.76-0.064-0.715-0.455
			c0.043-0.39-0.239-0.499-0.845-0.325c-1.475,0-2.795,0.173-3.965,0.521c-1.171,0.346-2.275,0.735-3.315,1.17
			c-0.607,0.26-1.17,0.476-1.69,0.65c-0.348,0.172-0.694,0.26-1.04,0.26c-0.348,0-0.65,0.085-0.91,0.26
			c-0.347,0.26-0.78,0.476-1.3,0.65c-0.521,0.173-0.694,0.52-0.521,1.04c-0.694,0.345-1.234,0.54-1.625,0.585
			c-0.39,0.043-0.76,0.15-1.104,0.325c-0.607,0.433-1.085,0.779-1.431,1.04c-0.347,0.26-0.694,0.52-1.04,0.78l-1.56,1.56
			c-0.26,0.26-0.5,0.54-0.715,0.845c-0.218,0.303-0.543,0.498-0.976,0.585c0,0.433-0.13,0.735-0.39,0.91
			c-0.26,0.173-0.391,0.433-0.391,0.78c-0.347,0.346-0.649,0.671-0.909,0.976c-0.261,0.302-0.565,0.627-0.91,0.975
			c-0.261,0.433-0.521,0.715-0.78,0.845s-0.478,0.28-0.65,0.455c-0.435,0.433-0.845,0.78-1.234,1.04
			c-0.391,0.261-0.63,0.476-0.716,0.65c-0.26,0.865-0.499,1.407-0.715,1.625c-0.217,0.215-0.369,0.41-0.455,0.585
			c-0.26,0.433-0.5,0.801-0.715,1.105c-0.218,0.303-0.412,0.627-0.585,0.975c-0.175,0.521-0.305,0.888-0.39,1.105
			c-0.088,0.215-0.218,0.41-0.391,0.585c-0.175,0.433-0.412,0.888-0.715,1.365c-0.305,0.475-0.455,1.018-0.455,1.625
			c-0.175,0.172-0.348,0.367-0.52,0.585c-0.175,0.215-0.391,0.497-0.65,0.845c-0.348,0.521-0.564,1.018-0.65,1.495
			c-0.087,0.476-0.217,0.931-0.39,1.365c-0.088,0.345-0.195,0.67-0.325,0.975c-0.13,0.303-0.282,0.628-0.455,0.976
			c-0.087,0.26-0.109,0.54-0.064,0.845c0.042,0.303,0.02,0.628-0.065,0.975c-0.175,0.953-0.305,1.603-0.39,1.95
			c-0.088,0.346-0.131,0.693-0.131,1.04c-0.174,0.865-0.282,1.32-0.324,1.365c-0.045,0.043,0.064,0.28,0.324,0.715
			c0.173,0.26,0.261,0.845,0.261,1.755c0,0.91,0.085,1.625,0.26,2.146c0.085,0.26,0.215,0.498,0.39,0.715
			c0.173,0.215,0.346,0.498,0.521,0.845c0.173,0.433,0.237,0.845,0.195,1.235c-0.045,0.39,0.02,0.715,0.194,0.975
			c0.433,0.52,0.671,0.865,0.715,1.04c0.043,0.173,0.15,0.345,0.325,0.52c0.173,0.345,0.476,0.735,0.91,1.17
			c0,0.78,0.107,1.603,0.325,2.47c0.215,0.865,0.54,1.603,0.975,2.21v1.56c0.261,0.26,0.476,0.563,0.65,0.91
			c0.173,0.346,0.346,0.693,0.521,1.04c0.345,0.693,0.715,1.451,1.104,2.275c0.391,0.823,0.845,1.58,1.365,2.275
			c0.346,0.605,0.585,0.931,0.715,0.975c0.13,0.042,0.238,0.108,0.325,0.195c0.692,0.605,1.255,1.213,1.69,1.82
			c0.433,0.605,0.822,1.04,1.17,1.3c0.26,0.172,0.585,0.325,0.975,0.455c0.391,0.13,0.758,0.281,1.105,0.455
			c0.26,0.346,0.497,0.67,0.715,0.975c0.215,0.303,0.54,0.455,0.975,0.455c0.434,0.78,1.126,1.516,2.08,2.21
			c0.346,0.26,0.801,0.476,1.365,0.65c0.563,0.172,1.061,0.345,1.495,0.52c0.605,0.345,1.083,0.54,1.431,0.585
			c0.345,0.042,0.649,0.107,0.91,0.195c1.04,0.605,2.08,1.018,3.12,1.235c1.04,0.215,1.905,0.585,2.6,1.105
			c1.04-0.087,2.016,0.085,2.926,0.52c0.909,0.433,1.84,0.735,2.795,0.91c0.26,0,0.52-0.022,0.78-0.065
			c0.26-0.045,0.562-0.065,0.909-0.065c0.605,0.085,1.19,0.15,1.756,0.195c0.562,0.042,1.06-0.24,1.495-0.845
			c0.172,0.345,0.433,0.562,0.779,0.65c0.346,0.085,0.693,0.215,1.04,0.39c0.953-0.175,1.905-0.24,2.86-0.195
			c0.953,0.042,1.863-0.022,2.73-0.195c0.865-0.174,1.625-0.435,2.275-0.78c0.649-0.348,1.364-0.52,2.145-0.52
			c0.605-0.435,1.19-0.78,1.755-1.04c0.563-0.26,1.19-0.607,1.886-1.04c0.605-0.348,1.104-0.65,1.495-0.91
			c0.39-0.26,0.888-0.607,1.495-1.04c0.604-0.607,1.04-0.975,1.3-1.105s0.476-0.195,0.65-0.195c0.172-0.694,0.475-1.257,0.909-1.69
			c0.433-0.435,0.866-0.867,1.301-1.3c0.172,0.345,0.28,0.78,0.324,1.3c0.043,0.52,0.15,0.996,0.325,1.43
			c-0.175,0.345-0.325,0.627-0.455,0.845c-0.13,0.215-0.152,0.67-0.064,1.365c0,1.04,0.215,1.69,0.649,1.95
			c0.433,0.26,0.996,0.368,1.69,0.325c0.692-0.045,1.473-0.217,2.34-0.52c0.865-0.305,1.82-0.5,2.86-0.585
			c0.78-0.087,1.69-0.13,2.73-0.13s1.992,0.043,2.86,0.13c0.433,0.085,0.845,0.215,1.234,0.39c0.391,0.173,0.758,0.215,1.105,0.13
			c0.605-0.175,1.104-0.435,1.495-0.78C90.29,36.081,90.658,35.863,91.005,35.778z M73.194-1.144
			c0.085,0.692,0.107,1.234,0.065,1.625c-0.045,0.39-0.11,0.845-0.195,1.364c-0.088,0.346-0.175,0.671-0.26,0.976
			c-0.088,0.302-0.088,0.67,0,1.105c-0.348,0.26-0.543,0.67-0.585,1.235c-0.045,0.562-0.152,0.975-0.325,1.235
			c-0.26,0.693-0.412,1.17-0.455,1.43c-0.045,0.26-0.109,0.433-0.195,0.52c-0.26,0.433-0.585,0.735-0.975,0.91
			c-0.391,0.173-0.585,0.562-0.585,1.17c-0.521,0.26-1.04,0.563-1.561,0.91c-0.52,0.345-0.867,0.735-1.04,1.17
			c-0.694,1.04-1.345,1.863-1.95,2.47c-0.607,0.605-1.215,1.125-1.82,1.56c-0.694,0.52-1.3,0.865-1.819,1.04
			c-0.521,0.173-0.998,0.345-1.431,0.52c-0.26,0.26-0.478,0.605-0.649,1.04c-0.175,0.433-0.348,0.91-0.521,1.43
			c-0.607,0.085-1.322,0.28-2.146,0.585c-0.824,0.303-1.539,0.541-2.145,0.715c-0.78,0.085-1.345,0.172-1.69,0.26
			c-0.347,0.085-0.694,0.173-1.04,0.26c-0.435,0-0.867-0.022-1.3-0.065c-0.435-0.044-0.867-0.022-1.3,0.065
			c-0.435,0.085-0.868,0.172-1.301,0.26c-0.435,0.085-0.867,0.173-1.3,0.26c-0.955-0.175-1.8-0.218-2.535-0.13
			c-0.737,0.085-1.322,0.085-1.755,0c-0.607-0.087-1.192-0.305-1.755-0.65c-0.565-0.347-1.15-0.52-1.755-0.52
			c-0.175-0.435-0.413-0.737-0.716-0.91c-0.305-0.174-0.63-0.39-0.975-0.65c-0.695-0.435-1.345-0.78-1.95-1.04
			c-0.607-0.26-1.085-0.737-1.43-1.43c-0.607-0.52-1.021-0.825-1.235-0.91c-0.218-0.087-0.37-0.217-0.455-0.39
			c-0.26-0.607-0.521-1.04-0.78-1.3c-0.26-0.26-0.478-0.478-0.649-0.65c0.172-0.435,0.042-0.845-0.391-1.235
			c-0.435-0.39-0.737-0.672-0.91-0.845c-0.087-0.955-0.217-1.647-0.39-2.08c-0.435-0.435-0.695-0.825-0.78-1.17
			c-0.087-0.347-0.217-0.694-0.39-1.04c-0.607-1.214-0.89-2.427-0.846-3.64c0.043-1.215,0.065-2.384,0.065-3.51
			c-0.175-0.694-0.218-1.192-0.13-1.494c0.085-0.306,0.13-0.543,0.13-0.716c-0.087-0.779-0.152-1.452-0.195-2.015
			c-0.044-0.564,0.065-1.192,0.325-1.885c0.085-0.175,0.216-0.521,0.39-1.04c0.173-0.521,0.303-0.78,0.391-0.78
			c0.345-0.694,0.649-1.17,0.91-1.43c0.26-0.261,0.52-0.607,0.78-1.04c0.345-0.521,0.627-1.062,0.845-1.626
			c0.215-0.564,0.41-1.149,0.585-1.755c0.346-0.347,0.67-0.694,0.975-1.04c0.303-0.347,0.541-0.78,0.716-1.3
			c1.04-0.521,1.797-0.955,2.274-1.3c0.476-0.348,0.931-0.65,1.365-0.91c0.953-0.521,1.69-0.976,2.21-1.365
			c0.521-0.39,0.996-0.673,1.431-0.845c1.646-0.607,3.162-0.91,4.55-0.91c0.26-0.088,0.498-0.088,0.715,0
			c0.216,0.085,0.455,0.13,0.716,0.13c2.252-0.175,3.942-0.218,5.069-0.13c1.126,0.085,2.253,0.215,3.381,0.39
			c0.952,0.173,1.84,0.325,2.665,0.455c0.822,0.13,1.538,0.368,2.145,0.715c0.78,0.605,1.343,0.931,1.69,0.976
			c0.346,0.042,0.65,0.15,0.91,0.325c0.865,0.433,1.43,0.757,1.69,0.975c0.26,0.215,0.52,0.41,0.779,0.585
			c0.521,0.433,1.019,0.78,1.495,1.04c0.476,0.26,0.801,0.692,0.976,1.3c0.26,0.173,0.54,0.325,0.845,0.455
			c0.303,0.13,0.585,0.368,0.845,0.716c0.434,0.692,0.65,1.212,0.65,1.56c0,0.346,0.085,0.65,0.26,0.91
			c0.173,0.26,0.346,0.498,0.521,0.715c0.173,0.216,0.345,0.455,0.52,0.715c0.173,0.261,0.303,0.498,0.391,0.716
			c0.085,0.215,0.173,0.454,0.26,0.715c0.173,0.779,0.39,1.277,0.65,1.495c0.26,0.215,0.345,0.54,0.26,0.975
			c0.173,0.692,0.367,1.32,0.585,1.885C72.824-2.467,73.019-1.839,73.194-1.144z"/>
	</g>
</symbol>
<use xlink:href="#Nieuw_symbool"  width="182.531" height="127.354" id="fixedillustration01_1_" x="-91.265" y="-63.677" transform="matrix(1 0 0 -1 107.0911 114)" overflow="visible"/>
</svg>
