<?xml version="1.0" encoding="utf-8"?>
<!-- Generator: Adobe Illustrator 21.0.2, SVG Export Plug-In . SVG Version: 6.00 Build 0)  -->
<svg version="1.1" id="fixedillustration01" xmlns="http://www.w3.org/2000/svg" xmlns:xlink="http://www.w3.org/1999/xlink"
	 x="0px" y="0px" viewBox="0 0 220 220" enable-background="new 0 0 220 220" xml:space="preserve">
<symbol  id="Nieuw_symbool" viewBox="-72.58 -76.197 145.16 152.394">
	<g>
		<path d="M-46.844,75.356c1.569,0.224,2.633,0.279,3.196,0.168c0.56-0.113,2.019-0.168,4.374-0.168s6.728,0.279,13.12,0.841
			l13.792-59.544L0.253-42.219v-0.168c-2.805-0.56-6.056-0.841-9.756-0.841c-3.701,0-7.964,0.505-12.784,1.514h-0.168
			c-0.786,2.129-2.019,6.645-3.7,13.54c-1.682,6.896-3.086,11.522-4.205,13.877c-0.45,0.337-1.514,0.505-3.196,0.505l-7.233-0.336
			c-0.898-2.132-2.018-6.673-3.364-13.625c-1.346-6.954-2.691-11.774-4.037-14.466c-1.009-0.224-2.019-0.336-3.028-0.336
			l-21.025,0.336c-0.113,0-0.226,0.056-0.336,0.168c0.11,0.337,1.232,6.671,3.364,19.008c2.129,12.334,5.214,27.838,9.251,46.508
			C-55.927,42.135-51.554,59.432-46.844,75.356z M-41.967,5.719c4.147,0,8.297,0,12.447,0c-2.691,23.436-4.823,35.155-6.392,35.155
			c-0.45,0-0.899-0.841-1.346-2.523C-37.706,36.669-39.275,25.791-41.967,5.719z"/>
		<path d="M58.787,41.883l13.121-0.336C72.353,25.509,72.58,9.866,72.58-5.381c0-15.252-0.141-26.661-0.42-34.23
			c-0.281-7.569-0.42-12.195-0.42-13.877v-4.205c0-2.915-0.506-5.102-1.516-6.56c-5.045-7.961-12.277-11.943-21.697-11.943
			L34.23-76.028c-10.43,0-18.504,4.149-24.223,12.446c-1.908,3.478-2.859,7.628-2.859,12.447c0,0.562,0.055,1.123,0.168,1.683
			c2.802,0.786,6.166,1.178,10.092,1.178s7.738-0.337,11.439-1.01c0-3.7,1.514-6.502,4.541-8.41c1.682-1.12,3.307-1.682,4.877-1.682
			c5.721,0,9.252,2.859,10.598,8.578c0.223,2.804,0.336,4.71,0.336,5.719l-0.168,3.7c0,1.01,0.055,2.019,0.168,3.028
			c-2.018-2.245-4.936-3.532-8.746-3.869c-1.234-0.112-3.086-0.194-5.551-0.252c-2.469-0.056-4.094-0.14-4.877-0.252
			c-11.215,0-18.504,3.532-21.868,10.597c-2.58,4.82-4.149,11.38-4.709,19.68v7.401c0,6.838,0.223,11.548,0.673,14.129
			c0.446,2.578,0.979,5.493,1.598,8.746c0.615,3.251,1.372,5.69,2.271,7.317c0.896,1.625,2.074,3.588,3.532,5.887
			c1.457,2.297,3.084,4.063,4.879,5.299c5.156,3.251,11.156,4.878,17.998,4.878c6.838,0,11.438-2.636,13.793-7.906
			c0.445-0.226,0.699-0.058,0.756,0.504c0.055,0.56,0.027,1.792-0.084,3.701c-0.113,1.905,0,3.196,0.336,3.869
			C52.228,41.715,55.424,41.883,58.787,41.883z M22.455-2.523v-1.514c0-5.719,1.682-10.597,5.047-14.634
			c2.578-3.254,6.559-4.878,11.941-4.878c4.373,0,7.176,1.232,8.41,3.7c0.896,1.456,1.57,3.979,2.02,7.569
			c0,12.334-0.73,21.362-2.188,27.081c-1.57,3.924-4.936,5.887-10.092,5.887c-3.254,0-5.945-1.009-8.074-3.028
			c-3.699-4.263-5.945-8.805-6.729-13.624C22.566,3.028,22.455,0.841,22.455-2.523z"/>
	</g>
</symbol>
<use xlink:href="#Nieuw_symbool"  width="145.16" height="152.394" id="fixedillustration01_1_" x="-72.58" y="-76.197" transform="matrix(1 0 0 -1 108.1311 120.5854)" overflow="visible"/>
</svg>
