
<svg xmlns="http://www.w3.org/2000/svg" width="980" height="340" style="shape-rendering:geometricPrecision;text-rendering:geometricPrecision;image-rendering:optimizeQuality;fill-rule:evenodd;clip-rule:evenodd"><path fill="#941b80" d="M715.5 56.5c-.667 0-1-.333-1-1l4.5-43C724.901 1.987 733.068-.18 743.5 6c5.546 6.204 6.38 13.038 2.5 20.5a1290.63 1290.63 0 0 1-30.5 30Zm16-48c8.905.817 12.072 5.483 9.5 14l-18 18c.002-8.692.669-17.359 2-26 1.436-2.942 3.603-4.942 6.5-6Z" style="opacity:.85"/><path fill="#931b80" d="M752.5 24.5c2.124.531 3.624 1.864 4.5 4a455.976 455.976 0 0 0 14 25c2.111-1.602 3.611-3.602 4.5-6-1.32-4.613-2.32-9.28-3-14 3.362-.43 6.195.57 8.5 3 1.971 5.203 2.971 10.537 3 16a57.195 57.195 0 0 1-9.5 8.5 60.867 60.867 0 0 1 8.5 17.5l11 4a487.32 487.32 0 0 1 10.5 33.5 109.653 109.653 0 0 1-10 17c-2.923 2.032-5.589 1.698-8-1 3.34-5.683 6.673-11.349 10-17a241.793 241.793 0 0 1-8-26.5c-1.322.17-2.489-.163-3.5-1-.375 7.711-2.208 15.044-5.5 22-.502 1.021-1.168 1.188-2 .5a2403.31 2403.31 0 0 1-39-70.5c4.688-5.02 9.355-10.02 14-15Z" style="opacity:.92"/><path fill="#b76ca8" d="M714.5 55.5c0 .667.333 1 1 1a611.731 611.731 0 0 1-43 10c-13.204-2.395-17.704-10.061-13.5-23 4.646-6.327 10.813-8.494 18.5-6.5l37 18.5Zm-45-13a18.437 18.437 0 0 1 6 .5l22 11a113.012 113.012 0 0 1-27 6c-6.681-2.528-8.514-7.028-5.5-13.5 1.397-1.57 2.897-2.904 4.5-4Z" style="opacity:.853"/><path fill="#931b80" d="M706.5 38.5c1.967-.24 3.801.094 5.5 1 .266 3.407-.234 6.74-1.5 10a80.626 80.626 0 0 1-7.5-4c-.824-3.34.343-5.673 3.5-7Z" style="opacity:.805"/><path fill="#941b80" d="M755.5 129.5a1149.059 1149.059 0 0 1-38-69 121.437 121.437 0 0 1 19-18 2384.147 2384.147 0 0 1 40 72c-5.621 6.958-12.621 11.958-21 15Z" style="opacity:.964"/><path fill="#931b80" d="M13.5 55.5c12.698.874 17.53 7.54 14.5 20 3.007-7.34 7.84-13.174 14.5-17.5 14.847-3.827 25.347 1.34 31.5 15.5 6.472 18.61 2.64 34.777-11.5 48.5-10.023 8.104-21.356 10.938-34 8.5a380.518 380.518 0 0 0 4 71.5c-1.182 7.686-5.182 9.519-12 5.5a44.757 44.757 0 0 1-6.5-14 402.223 402.223 0 0 1-9-66 315.655 315.655 0 0 1 0-60c.192-6.106 3.026-10.106 8.5-12Zm37 9c6.349 1.517 10.182 5.517 11.5 12 4.106 17.352-.727 31.519-14.5 42.5-6.993 3.903-14.16 4.403-21.5 1.5-.502-16.993 3.832-32.66 13-47 3.183-4.038 7.016-7.038 11.5-9Z" style="opacity:.944"/><path fill="#b76ca8" d="M717.5 60.5a1149.059 1149.059 0 0 0 38 69c-6.869 5.344-14.702 8.678-23.5 10a3750.75 3750.75 0 0 1-40.5-72 230.066 230.066 0 0 1 26-7Z" style="opacity:.967"/><path fill="#b76da8" d="M683.5 67.5c1.967-.24 3.801.094 5.5 1a3547.193 3547.193 0 0 0 38.5 70c-8.178.506-15.845-1.494-23-6-1.114 1.223-1.281 2.556-.5 4a720.658 720.658 0 0 1 16.5 19.5 76.4 76.4 0 0 0 20 1.5c.396 2.544-.271 4.711-2 6.5-7 .667-14 .667-21 0a427.297 427.297 0 0 1-22.5-25.5c.182-4.072 1.015-8.072 2.5-12a98.66 98.66 0 0 1-10-16l-2-1c-4.203 1.797-8.536 2.63-13 2.5a70.588 70.588 0 0 1-9.5-10.5c-1.209-3.768-.209-6.768 3-9a70.607 70.607 0 0 0 9.5 10.5c2.451.306 4.784-.194 7-1.5a1253.898 1253.898 0 0 0-16-29.5 312.032 312.032 0 0 0 17-4.5Z" style="opacity:.923"/><path fill="#b76da8" d="M516.5 71.5c12.303-1.188 19.303 4.312 21 16.5-.452 3.41-1.619 6.576-3.5 9.5a270.069 270.069 0 0 1-13 19c-6.293-7.221-11.626-15.221-16-24-1.879-10.25 1.955-17.25 11.5-21Zm1 9c8.156-.679 11.656 2.988 10.5 11-6.823 6.857-11.99 5.69-15.5-3.5.83-3.19 2.497-5.69 5-7.5Z" style="opacity:.896"/><path fill="#931b80" d="M486.5 73.5c6.627-.28 10.794 2.72 12.5 9l.5 12a1015.19 1015.19 0 0 0-1 99.5 19.357 19.357 0 0 1-2.5 9.5c-3.696 2.925-7.029 2.592-10-1a93.923 93.923 0 0 1-6-25 529.881 529.881 0 0 1-1-89 45.98 45.98 0 0 1 2-10c1.107-2.613 2.94-4.28 5.5-5Z" style="opacity:.95"/><path fill="#931b80" d="M829.5 85.5c6.09-1.363 10.59.637 13.5 6a1134.298 1134.298 0 0 1-1 30c2.651-11.293 8.485-20.46 17.5-27.5 10.356-.99 15.856 3.844 16.5 14.5a137.909 137.909 0 0 1 9-13c17.818-13.278 29.151-8.945 34 13 2.243 31.331-.09 62.331-7 93a20.924 20.924 0 0 1-4.5 8.5c-1.867.711-3.367.211-4.5-1.5l-.5-6a584.522 584.522 0 0 0 4.5-91 53.077 53.077 0 0 0-3-14c-3.142-2.448-6.308-2.281-9.5.5-5.516 4.865-9.683 10.698-12.5 17.5a136.521 136.521 0 0 0-6 25c-1.594 5.252-4.594 6.252-9 3-.76-8.525-.593-17.025.5-25.5a199.512 199.512 0 0 0-2.5-16.5c-1.049-1.017-2.216-1.184-3.5-.5-7.066 8.298-11.9 17.798-14.5 28.5-5.332 24.606-6.832 49.439-4.5 74.5-1.918 6.577-5.751 8.077-11.5 4.5a49.73 49.73 0 0 1-5-15 253.913 253.913 0 0 1-2.5-33c.456-19.322.623-38.656.5-58 .303-4.394.97-8.727 2-13 .69-1.85 1.856-3.184 3.5-4Z" style="opacity:.926"/><path fill="#931b80" d="M565.5 106.5c9.342-1.032 18.008.801 26 5.5 5.622 5.314 7.789 11.814 6.5 19.5a70.329 70.329 0 0 1-10 20L552.5 193a130.954 130.954 0 0 1 32-2c4.45.22 7.45 2.386 9 6.5-.77 1.772-2.103 2.772-4 3a29.804 29.804 0 0 0-9.5-2 830.609 830.609 0 0 0-28 5c-9.095-.098-13.928-4.598-14.5-13.5a36.804 36.804 0 0 1 4.5-14.5 172.26 172.26 0 0 1 13-18 219.11 219.11 0 0 0 28-33 17.758 17.758 0 0 0 1.5-7c-6.873-1.892-13.873-2.392-21-1.5a6675.266 6675.266 0 0 1-24 6c-2.765-2.966-2.432-5.633 1-8 8.125-3.609 16.459-6.109 25-7.5Z" style="opacity:.927"/><path fill="#931b80" d="M435.5 107.5c17.707-.552 28.873 7.781 33.5 25 5.113 23.165 4.446 46.165-2 69-5.241 4.903-10.741 5.236-16.5 1-12.151 3.386-23.818 2.22-35-3.5-8.945-8.083-11.445-17.916-7.5-29.5 7.845-15.666 20.345-21.166 37.5-16.5l7 3.5c1.186-13.217-.981-25.884-6.5-38-6.356-3.059-12.189-2.226-17.5 2.5-6.63 8.715-10.63 18.548-12 29.5-3.257 1.606-5.424.606-6.5-3-.763-19.52 7.737-32.853 25.5-40Zm0 55c6.48-.676 11.98 1.324 16.5 6 .219 8.332.052 16.666-.5 25a35.605 35.605 0 0 1-15 1.5c-5.167-1.167-8.333-4.333-9.5-9.5-1.571-9.433 1.262-17.1 8.5-23Z" style="opacity:.935"/><path fill="#931b80" d="M131.5 108.5a60.931 60.931 0 0 1 11 .5 6.978 6.978 0 0 1 3.5 2.5 93.33 93.33 0 0 1 2 18c4.556-8.889 11.39-15.389 20.5-19.5 16.629-2.696 25.629 4.304 27 21-1.211 13.413-7.544 23.746-19 31a211.456 211.456 0 0 1-25 11.5c9.306 12.499 20.973 15.665 35 9.5 6.725.822 7.392 3.489 2 8-15.287 5.578-29.12 3.078-41.5-7.5l-1 15c-3.404 5.844-7.737 6.511-13 2a77.535 77.535 0 0 1-5-20 282.333 282.333 0 0 1-1-62c.454-3.883 1.954-7.216 4.5-10Zm40 9c5.272-.951 8.772 1.049 10.5 6 2.171 9.295.171 17.628-6 25-8.274 8.888-18.441 14.221-30.5 16 1.682-16.859 8.348-31.359 20-43.5 1.932-1.459 3.932-2.625 6-3.5Z" style="opacity:.928"/><path fill="#931b80" d="M224.5 108.5c11.706-1.156 21.539 2.511 29.5 11 2.394 5.776 3.061 11.776 2 18-1.789 1.729-3.956 2.396-6.5 2 .392-17.628-6.942-22.128-22-13.5-11.384 8.888-11.717 17.888-1 27 10.628 4.894 20.128 11.394 28.5 19.5 4.701 6.905 4.368 13.572-1 20-15.128 13.69-30.795 14.356-47 2-3.982-4.296-5.315-9.296-4-15 1.845-4.295 4.512-4.962 8-2 1.691 12.939 8.858 17.439 21.5 13.5 9.173-4.843 10.173-10.843 3-18a157.023 157.023 0 0 1-30.5-18.5c-10.123-16.054-7.623-29.887 7.5-41.5 3.932-2.028 7.932-3.528 12-4.5Z" style="opacity:.924"/><path fill="#931b80" d="M291.5 108.5c9.13-.238 16.63 3.095 22.5 10 13.648 23.735 13.981 47.735 1 72-9.427 12.822-21.261 15.655-35.5 8.5-12.485-10.317-18.152-23.65-17-40-.604-9.978 1.229-19.478 5.5-28.5a90.743 90.743 0 0 1 11.5-16.5c3.727-2.701 7.727-4.535 12-5.5Zm2 8c6.121 1.477 10.955 4.81 14.5 10 11.325 19.643 11.325 39.31 0 59-3.622 7.067-9.122 9.567-16.5 7.5-6.807-7.587-9.474-16.42-8-26.5 5.36 2.776 11.026 3.61 17 2.5 3.294-5.88 1.628-7.713-5-5.5-5.538-1.371-9.371-4.704-11.5-10a87.009 87.009 0 0 1 2.5-19.5c.217-3.235-1.117-5.568-4-7 2.272-5.108 5.938-8.608 11-10.5Z" style="opacity:.92"/><path fill="#931b80" d="M337.5 108.5c6.398-1.447 11.231.553 14.5 6 .117 10.337.117 20.67 0 31 3.382-11.936 9.215-22.436 17.5-31.5 8.365-6.401 16.198-5.901 23.5 1.5a41.026 41.026 0 0 1 6 16c2.636 21.948 2.303 43.948-1 66-.713 3.546-2.88 5.546-6.5 6-2.101-.132-3.601-1.132-4.5-3 .418-19.658.418-39.324 0-59a84.613 84.613 0 0 0-3-19c-.197-2.361-1.364-4.028-3.5-5a36.237 36.237 0 0 0-11.5 11c-11.699 22.139-17.699 45.806-18 71-3.356 4.448-7.356 5.115-12 2a47.92 47.92 0 0 1-6-18 281.182 281.182 0 0 1-1-65c.049-4.44 1.882-7.773 5.5-10Z" style="opacity:.936"/><path fill="#931b80" d="M86.5 111.5c13.628-2.866 23.461 1.8 29.5 14 3.62 10.148 4.286 20.481 2 31-.229 2.958-1.396 5.458-3.5 7.5-10.661.5-21.328.667-32 .5.038 10.824 2.872 20.824 8.5 30 4.704 4.239 9.038 3.905 13-1a63.83 63.83 0 0 0 7.5-18.5c3.702-1.393 5.702-.226 6 3.5-5.225 27.616-19.558 33.782-43 18.5-8.92-10.662-12.92-22.995-12-37-.826-14.895 3.007-28.395 11.5-40.5 3.671-3.577 7.838-6.244 12.5-8Zm12 11c4.556 1.385 7.722 4.385 9.5 9 2.399 8.172 3.066 16.506 2 25-9.073.259-18.24.259-27.5 0-.204-14.104 5.13-25.438 16-34ZM625.5 111.5c13.628-2.866 23.461 1.8 29.5 14 3.728 10.464 4.395 21.131 2 32-.516 2.534-1.683 4.7-3.5 6.5-10.661.5-21.328.667-32 .5.124 9.495 2.291 18.495 6.5 27 4.386 6.861 9.386 7.528 15 2a52.911 52.911 0 0 0 7.5-18.5c4.049-1.484 6.049-.151 6 4-3.714 24.687-16.714 31.687-39 21-11.872-10.435-17.205-23.601-16-39.5-.667-15.008 3.166-28.675 11.5-41 3.671-3.577 7.838-6.244 12.5-8Zm12 11c4.883 1.046 8.05 4.046 9.5 9 2.293 8.486 3.126 17.153 2.5 26a327.72 327.72 0 0 0-28-1c0-13.994 5.334-25.328 16-34Z" style="opacity:.929"/><path fill="#931b80" d="M949.5 122.5c15.091-.415 23.591 6.919 25.5 22 .968 7.819.301 15.486-2 23l-2.5 2.5-28 1a92.707 92.707 0 0 0 5.5 21.5c2.735 5.622 6.901 7.122 12.5 4.5 4.003-5.174 6.503-11.007 7.5-17.5 1.667-1.333 3.333-1.333 5 0 1.099 11.644-3.401 20.144-13.5 25.5-11.695 2.065-20.862-1.768-27.5-11.5a40.98 40.98 0 0 1-6-16c-1.325-12.222-.325-24.222 3-36 3.26-10.435 10.093-16.768 20.5-19Zm9 10c4.823 2.966 7.656 7.299 8.5 13 .499 5.991.666 11.991.5 18-8.007.166-16.007 0-24-.5-.818-13.056 4.182-23.223 15-30.5Z" style="opacity:.92"/><path fill="#931b80" d="M514.5 123.5a60.931 60.931 0 0 1 11 .5c2.696.69 4.863 2.19 6.5 4.5a1375.8 1375.8 0 0 0-2.5 50.5c.02 6.214.353 12.381 1 18.5-2.533 5.702-6.866 7.535-13 5.5l-2.5-2.5c-5.13-20.021-6.796-40.354-5-61-.265-5.959 1.235-11.292 4.5-16Z" style="opacity:.954"/><path fill="#931b80" d="M759.5 136.5c1.951-.273 3.451.393 4.5 2l2.5 12.5c-1.892 4.654-3.558 4.487-5-.5a76.1 76.1 0 0 1-2-14Z" style="opacity:.77"/><path fill="#931b80" d="M762.5 158.5c.996-.086 1.829.248 2.5 1a46.402 46.402 0 0 1-1 16c-2.476 1.563-3.976.896-4.5-2a92.995 92.995 0 0 1 3-15Z" style="opacity:.794"/><path fill="#931b80" d="M755.5 184.5c2.165-.384 3.832.283 5 2l-6.5 11c-1.444 1.655-3.278 2.322-5.5 2a8.43 8.43 0 0 1 .5-4 46.077 46.077 0 0 0 6.5-11Z" style="opacity:.761"/><path fill="#931b80" d="M742.5 204.5c3.509 1.262 3.842 3.095 1 5.5a64.735 64.735 0 0 0-9 6 12.93 12.93 0 0 1-5 .5c-.203-1.89.463-3.39 2-4.5 3.733-2.523 7.399-5.023 11-7.5Z" style="opacity:.755"/><path fill="#931b80" d="M599.5 217.5h10v4a197.028 197.028 0 0 1-17 2c-.262-1.478.071-2.811 1-4a41.653 41.653 0 0 0 6-2Z" style="opacity:.786"/><path fill="#931b80" d="M722.5 217.5c2.628.755 3.295 2.255 2 4.5-4.6 3.305-9.6 5.472-15 6.5-.262-1.478.071-2.811 1-4 4.063-2.36 8.063-4.693 12-7Z" style="opacity:.774"/><path fill="#931b80" d="M620.5 219.5a36.94 36.94 0 0 1 14 6c.929 1.189 1.262 2.522 1 4a70.009 70.009 0 0 1-15-5.5c-1.228-1.49-1.228-2.99 0-4.5Z" style="opacity:.785"/><path fill="#b76da8" d="M67.5 222.5c5.784-.071 10.95 1.595 15.5 5 3.178 7.351 1.345 13.184-5.5 17.5a105.18 105.18 0 0 1 13 17.5c-1.287 2.781-3.287 3.448-6 2a96.272 96.272 0 0 0-12.5-16c-.5 5.657-.666 11.324-.5 17-1.967.239-3.8-.094-5.5-1l-.5-20.5c.036-7.402.703-14.569 2-21.5Zm4 7c3.482-.432 5.815.901 7 4-1.274 3.109-3.44 5.442-6.5 7a60.94 60.94 0 0 1-.5-11Z" style="opacity:.856"/><path fill="#b76da8" d="M117.5 222.5a5.576 5.576 0 0 1 3 1 483.123 483.123 0 0 1 1.5 31c.723 4.418 3.057 5.751 7 4a22.508 22.508 0 0 0 2-7c-.081-9.358.086-18.691.5-28 1.333-1.333 2.667-1.333 4 0 2.604 12.409 2.437 24.742-.5 37-.833 2.167-2.333 3.667-4.5 4.5-8.187 1.988-13.02-1.178-14.5-9.5a240.38 240.38 0 0 1 0-31c.717-.544 1.217-1.211 1.5-2Z" style="opacity:.857"/><path fill="#b76da8" d="M210.5 222.5c1.788-.285 3.455.048 5 1 5.538 13.145 8.371 26.812 8.5 41-1.667 1.333-3.333 1.333-5 0-.61-3.327-1.11-6.661-1.5-10a13.116 13.116 0 0 0-7 1 89.688 89.688 0 0 0-2.5 9c-1.667 1.333-3.333 1.333-5 0a915.652 915.652 0 0 1 7.5-42Zm3 16a83.7 83.7 0 0 1 3 9c-1.574 1.131-3.241 1.298-5 .5a34.455 34.455 0 0 0 2-9.5Z" style="opacity:.874"/><path fill="#b76da8" d="M45.5 223.5a345.891 345.891 0 0 1 17 2c1.359 1.806 1.025 3.306-1 4.5a72.368 72.368 0 0 1-12 .5 49.393 49.393 0 0 1-1 11c3.35-.165 6.683.002 10 .5 1.333 1.667 1.333 3.333 0 5-3.317.498-6.65.665-10 .5a224.507 224.507 0 0 0-1 18c-5.245.921-7.245-1.246-6-6.5.677-10.846 1.51-21.679 2.5-32.5l1.5-3Z" style="opacity:.846"/><path fill="#b76da8" d="M94.5 223.5c5.964.807 11.964 1.14 18 1 .015 5.667-2.651 7.334-8 5-1.83.276-3.497.943-5 2a23.842 23.842 0 0 0-1 9 40.914 40.914 0 0 1 9 .5c1.333 1.667 1.333 3.333 0 5-3.317.498-6.65.665-10 .5v13h13c.359 2.266-.308 4.099-2 5.5-5.584.806-11.084.639-16.5-.5a185.692 185.692 0 0 1 2.5-41Z" style="opacity:.87"/><path fill="#b76da8" d="M143.5 223.5c7.371-1.452 13.538.548 18.5 6 2.914 8.874 3.247 17.874 1 27-4.878 8.737-11.878 11.07-21 7a442.228 442.228 0 0 1 1.5-40Zm5 6c8.263 1.156 11.596 5.989 10 14.5.264 4.406-.569 8.573-2.5 12.5-2.305 2.43-5.138 3.43-8.5 3 .613-9.988.947-19.988 1-30Z" style="opacity:.864"/><path fill="#b76da8" d="M171.5 223.5c5.895.49 11.729 1.157 17.5 2 .711 1.867.211 3.367-1.5 4.5-4.01-.696-8.01-.529-12 .5v10a40.914 40.914 0 0 1 9 .5c1.333 1.667 1.333 3.333 0 5-3.317.498-6.65.665-10 .5v13a72.367 72.367 0 0 1 12 .5c1.491 2.022 1.158 3.688-1 5-5.584.806-11.084.639-16.5-.5-.972-13.839-.139-27.506 2.5-41Z" style="opacity:.869"/><path fill="#b76da8" d="M275.5 223.5a40.914 40.914 0 0 1 9 .5c2.158 1.312 2.491 2.978 1 5l-8 1c-1.102 2.401-1.269 4.901-.5 7.5a82.262 82.262 0 0 0 10 7c4.92 14.728-.247 21.561-15.5 20.5-1.711-1.133-2.211-2.633-1.5-4.5a51.727 51.727 0 0 1 9.5-1.5c5.453-6.85 3.786-11.85-5-15a11.532 11.532 0 0 1-3.5-4.5c-1.795-6.514-.295-11.847 4.5-16Z" style="opacity:.845"/><path fill="#b76da8" d="M299.5 223.5c3.963-.411 7.63.422 11 2.5 2.995 3.237 2.662 5.737-1 7.5-1.952-.708-3.619-1.875-5-3.5-3.563-.123-5.73 1.71-6.5 5.5a46.402 46.402 0 0 0-1 16c3.701 10.452 7.868 10.619 12.5.5 1.284-.684 2.451-.517 3.5.5-.591 12.259-6.424 15.759-17.5 10.5-6.428-11.685-6.595-23.518-.5-35.5 1.397-1.57 2.897-2.904 4.5-4Z" style="opacity:.834"/><path fill="#b76da8" d="M319.5 223.5c1.644-.214 3.144.12 4.5 1 .777 4.722.61 9.389-.5 14a26.75 26.75 0 0 0 10 2 112.97 112.97 0 0 1 .5-15c1.401-1.692 3.234-2.359 5.5-2 .294 14.05-.372 28.05-2 42-1.561.847-3.061.514-4.5-1a67.189 67.189 0 0 1 .5-18 44.866 44.866 0 0 0-10-1 145.053 145.053 0 0 1-.5 17c-.519 2.992-2.019 3.992-4.5 3a177.335 177.335 0 0 1 1-42Z" style="opacity:.862"/><path fill="#b76da8" d="M347.5 223.5c5.964.807 11.964 1.14 18 1 .359 2.266-.308 4.099-2 5.5-4.01-.696-8.01-.529-12 .5v10a40.914 40.914 0 0 1 9 .5c1.333 1.667 1.333 3.333 0 5-3.317.498-6.65.665-10 .5v13h13c.359 2.266-.308 4.099-2 5.5-5.584.806-11.084.639-16.5-.5a174.83 174.83 0 0 1 2.5-41Z" style="opacity:.872"/><path fill="#b76da8" d="M398.5 223.5c1.322-.17 2.489.163 3.5 1l1 12a70.588 70.588 0 0 1 9.5-10.5c2.406-.779 4.073.054 5 2.5a247.778 247.778 0 0 1-12 14.5l12.5 18.5c.5 3.5-1 5-4.5 4.5a149.01 149.01 0 0 0-11.5-16.5 128.507 128.507 0 0 0-.5 16c-1.967.239-3.801-.094-5.5-1a547.019 547.019 0 0 1 1-39c.717-.544 1.217-1.211 1.5-2Z" style="opacity:.857"/><path fill="#b76da8" d="M423.5 223.5c5.895.49 11.729 1.157 17.5 2 .783 1.933.283 3.433-1.5 4.5-4.01-.696-8.01-.529-12 .5v10a40.914 40.914 0 0 1 9 .5c1.333 1.667 1.333 3.333 0 5-3.317.498-6.65.665-10 .5v13a72.367 72.367 0 0 1 12 .5c1.491 2.022 1.158 3.688-1 5-5.584.806-11.084.639-16.5-.5-.918-13.829-.084-27.495 2.5-41Z" style="opacity:.87"/><path fill="#931b80" d="M484.5 223.5c5.353 1.159 7.687 4.326 7 9.5-3.142-.088-5.642-1.588-7.5-4.5-.64-1.765-.473-3.432.5-5Z" style="opacity:.773"/><path fill="#b76da8" d="M230.5 224.5c1.984-.117 3.65.55 5 2a59.24 59.24 0 0 0 6.5 13l7-14c1.667-1.333 3.333-1.333 5 0a254.022 254.022 0 0 1-.5 39c-1.333 1.333-2.667 1.333-4 0a267.06 267.06 0 0 1-1.5-23c-4.991 12.18-9.324 11.846-13-1-.767 8.008-1.6 16.008-2.5 24-1.806 1.359-3.306 1.025-4.5-1a202.78 202.78 0 0 1 2.5-39Z" style="opacity:.861"/><path fill="#b76da8" d="M370.5 224.5c1.322-.17 2.489.163 3.5 1a363.338 363.338 0 0 1 11 23l1-22c1.667-1.333 3.333-1.333 5 0 .537 13.009.37 26.009-.5 39-1.788.285-3.455-.048-5-1l-10.5-23-1 23c-1.667 1.333-3.333 1.333-5 0a219.194 219.194 0 0 1 1.5-40Z" style="opacity:.872"/><path fill="#b76da8" d="M446.5 224.5c1.59.128 2.923.795 4 2a941.862 941.862 0 0 0 10.5 22l1-22c1.667-1.333 3.333-1.333 5 0a203.934 203.934 0 0 1-1.5 38.5c-1.444.781-2.777.614-4-.5a941.862 941.862 0 0 0-10.5-22l-1 22c-1.667 1.333-3.333 1.333-5 0a189.5 189.5 0 0 1 1.5-40Z" style="opacity:.869"/><path fill="#931b80" d="M580.5 226.5h4a8.43 8.43 0 0 1-.5 4 116.926 116.926 0 0 0-9 11c-2.188-.559-2.854-1.893-2-4 1.549-4.37 4.049-8.037 7.5-11Z" style="opacity:.77"/><path fill="#931b80" d="M702.5 230.5c3.529 1.109 3.862 2.942 1 5.5a59.043 59.043 0 0 0-9 5 12.93 12.93 0 0 1-5 .5c-.203-1.89.463-3.39 2-4.5 3.73-2.193 7.397-4.36 11-6.5Z" style="opacity:.765"/><path fill="#931b80" d="M642.5 234.5c2.763.244 4.929 1.577 6.5 4a36.16 36.16 0 0 0 4 7c.963 4.726-.37 5.726-4 3a110.979 110.979 0 0 0-7.5-12c.363-.683.696-1.35 1-2Z" style="opacity:.758"/><path fill="#931b80" d="M493.5 237.5c5.173.634 7.839 3.634 8 9-5.173-.634-7.839-3.634-8-9Z" style="opacity:.728"/><path fill="#931b80" d="M683.5 242.5h4c.214 1.644-.12 3.144-1 4.5-4.054 3.527-8.72 5.694-14 6.5a8.43 8.43 0 0 1 .5-4 125.165 125.165 0 0 0 10.5-7Z" style="opacity:.79"/><path fill="#931b80" d="M567.5 249.5h3a100.684 100.684 0 0 1-2.5 17c-1 1.333-2 1.333-3 0-1.004-5.98-.171-11.646 2.5-17Z" style="opacity:.812"/><path fill="#931b80" d="M659.5 256.5h5c.203 1.89-.463 3.39-2 4.5a97.288 97.288 0 0 1-12 5.5c-2.204-.027-3.038-1.027-2.5-3a217.176 217.176 0 0 1 11.5-7Z" style="opacity:.752"/><path fill="#931b80" d="M505.5 257.5c1.322-.17 2.489.163 3.5 1a74.27 74.27 0 0 1 6.5 15c-3.308.526-5.474-.807-6.5-4-2.75-3.754-3.916-7.754-3.5-12Z" style="opacity:.769"/><path fill="#931b80" d="M653.5 266.5h3a32.462 32.462 0 0 1-.5 8c-2.668 4.095-4.168 3.595-4.5-1.5-.018-2.41.649-4.577 2-6.5Z" style="opacity:.754"/><path fill="#931b80" d="M635.5 267.5c3.661-.15 4.661 1.35 3 4.5-4.977 2.827-10.311 4.327-16 4.5-.17-1.322.163-2.489 1-3.5a227.398 227.398 0 0 0 12-5.5Z" style="opacity:.775"/><path fill="#931b80" d="M569.5 275.5a174.95 174.95 0 0 0 17 4v4c-6.231.644-11.731-1.022-16.5-5a4.934 4.934 0 0 1-.5-3Z" style="opacity:.771"/><path fill="#931b80" d="M608.5 276.5h5c.273 1.951-.393 3.451-2 4.5a117.754 117.754 0 0 1-15 2.5c-.214-1.644.12-3.144 1-4.5 3.892-.419 7.558-1.252 11-2.5Z" style="opacity:.781"/><path fill="#931b80" d="M516.5 281.5c1.478-.262 2.811.071 4 1a121.345 121.345 0 0 1 7 13c-.848 1.783-2.181 2.283-4 1.5-3.596-4.685-5.929-9.851-7-15.5Z" style="opacity:.751"/><path fill="#931b80" d="M647.5 285.5c3.18-.324 4.347 1.01 3.5 4l-5 10c-1.444 1.655-3.278 2.322-5.5 2a85.634 85.634 0 0 1 7-16Z" style="opacity:.765"/><path fill="#931b80" d="M529.5 303.5a8.43 8.43 0 0 1 4 .5 77.917 77.917 0 0 1 9 12c-.622 2.48-1.956 2.98-4 1.5a64.292 64.292 0 0 0-6.5-7c-1.903-1.941-2.736-4.274-2.5-7Z" style="opacity:.737"/><path fill="#931b80" d="M633.5 308.5h3c-1.093 5.625-4.093 10.125-9 13.5a8.43 8.43 0 0 1-4 .5 8.43 8.43 0 0 1 .5-4 133.234 133.234 0 0 0 9.5-10Z" style="opacity:.788"/><path fill="#931b80" d="M548.5 322.5c5.249.784 10.249 2.451 15 5 .929 1.189 1.262 2.522 1 4-5.297-.654-10.297-2.321-15-5-.929-1.189-1.262-2.522-1-4Z" style="opacity:.793"/><path fill="#931b80" d="M611.5 325.5h5c.262 1.478-.071 2.811-1 4a107.942 107.942 0 0 1-13 5c-1.41-.368-2.41-1.201-3-2.5a105.307 105.307 0 0 1 12-6.5Z" style="opacity:.785"/><path fill="#931b80" d="M574.5 330.5c5.344-.166 10.677.001 16 .5 1.227 1.587.894 2.921-1 4-5 .667-10 .667-15 0-1.228-1.49-1.228-2.99 0-4.5Z" style="opacity:.741"/></svg>